<mxfile host="app.diagrams.net" agent="Mozilla/5.0 (Macintosh; Intel Mac OS X 10.15; rv:130.0) Gecko/20100101 Firefox/130.0" version="24.7.17">
  <diagram id="Ht1M8jgEwFfnCIfOTk4-" name="Page-1">
    <mxGraphModel dx="1242" dy="701" grid="1" gridSize="10" guides="1" tooltips="1" connect="1" arrows="1" fold="1" page="1" pageScale="1" pageWidth="1169" pageHeight="827" math="0" shadow="0">
      <root>
        <mxCell id="0" />
        <mxCell id="1" parent="0" />
        <mxCell id="yQbVkZ1Mlvk6sgAwkrUm-3" value="VPC" style="points=[[0,0],[0.25,0],[0.5,0],[0.75,0],[1,0],[1,0.25],[1,0.5],[1,0.75],[1,1],[0.75,1],[0.5,1],[0.25,1],[0,1],[0,0.75],[0,0.5],[0,0.25]];outlineConnect=0;gradientColor=none;html=1;whiteSpace=wrap;fontSize=12;fontStyle=0;container=1;pointerEvents=0;collapsible=0;recursiveResize=0;shape=mxgraph.aws4.group;grIcon=mxgraph.aws4.group_vpc;strokeColor=#248814;fillColor=none;verticalAlign=top;align=left;spacingLeft=30;fontColor=#AAB7B8;dashed=0;" parent="1" vertex="1">
          <mxGeometry x="600" y="50" width="360" height="220" as="geometry" />
        </mxCell>
        <mxCell id="yQbVkZ1Mlvk6sgAwkrUm-1" value="" style="sketch=0;points=[[0,0,0],[0.25,0,0],[0.5,0,0],[0.75,0,0],[1,0,0],[0,1,0],[0.25,1,0],[0.5,1,0],[0.75,1,0],[1,1,0],[0,0.25,0],[0,0.5,0],[0,0.75,0],[1,0.25,0],[1,0.5,0],[1,0.75,0]];outlineConnect=0;fontColor=#232F3E;gradientColor=#F78E04;gradientDirection=north;fillColor=#D05C17;strokeColor=#ffffff;dashed=0;verticalLabelPosition=bottom;verticalAlign=top;align=center;html=1;fontSize=12;fontStyle=0;aspect=fixed;shape=mxgraph.aws4.resourceIcon;resIcon=mxgraph.aws4.fargate;" parent="yQbVkZ1Mlvk6sgAwkrUm-3" vertex="1">
          <mxGeometry x="266" y="50" width="78" height="78" as="geometry" />
        </mxCell>
        <mxCell id="yQbVkZ1Mlvk6sgAwkrUm-5" value="ECS&lt;br&gt;FARGATE" style="text;html=1;align=center;verticalAlign=middle;resizable=0;points=[];autosize=1;fontColor=#A9C4EB;" parent="yQbVkZ1Mlvk6sgAwkrUm-3" vertex="1">
          <mxGeometry x="265" y="127" width="80" height="40" as="geometry" />
        </mxCell>
        <mxCell id="yQbVkZ1Mlvk6sgAwkrUm-6" value="" style="sketch=0;points=[[0,0,0],[0.25,0,0],[0.5,0,0],[0.75,0,0],[1,0,0],[0,1,0],[0.25,1,0],[0.5,1,0],[0.75,1,0],[1,1,0],[0,0.25,0],[0,0.5,0],[0,0.75,0],[1,0.25,0],[1,0.5,0],[1,0.75,0]];outlineConnect=0;fontColor=#232F3E;gradientColor=#F78E04;gradientDirection=north;fillColor=#D05C17;strokeColor=#ffffff;dashed=0;verticalLabelPosition=bottom;verticalAlign=top;align=center;html=1;fontSize=12;fontStyle=0;aspect=fixed;shape=mxgraph.aws4.resourceIcon;resIcon=mxgraph.aws4.containers;" parent="yQbVkZ1Mlvk6sgAwkrUm-3" vertex="1">
          <mxGeometry x="50" y="30" width="78" height="78" as="geometry" />
        </mxCell>
        <mxCell id="yQbVkZ1Mlvk6sgAwkrUm-7" value="" style="sketch=0;points=[[0,0,0],[0.25,0,0],[0.5,0,0],[0.75,0,0],[1,0,0],[0,1,0],[0.25,1,0],[0.5,1,0],[0.75,1,0],[1,1,0],[0,0.25,0],[0,0.5,0],[0,0.75,0],[1,0.25,0],[1,0.5,0],[1,0.75,0]];outlineConnect=0;fontColor=#232F3E;gradientColor=#F78E04;gradientDirection=north;fillColor=#D05C17;strokeColor=#ffffff;dashed=0;verticalLabelPosition=bottom;verticalAlign=top;align=center;html=1;fontSize=12;fontStyle=0;aspect=fixed;shape=mxgraph.aws4.resourceIcon;resIcon=mxgraph.aws4.containers;" parent="yQbVkZ1Mlvk6sgAwkrUm-3" vertex="1">
          <mxGeometry x="70" y="70" width="78" height="78" as="geometry" />
        </mxCell>
        <mxCell id="yQbVkZ1Mlvk6sgAwkrUm-8" value="" style="sketch=0;points=[[0,0,0],[0.25,0,0],[0.5,0,0],[0.75,0,0],[1,0,0],[0,1,0],[0.25,1,0],[0.5,1,0],[0.75,1,0],[1,1,0],[0,0.25,0],[0,0.5,0],[0,0.75,0],[1,0.25,0],[1,0.5,0],[1,0.75,0]];outlineConnect=0;fontColor=#232F3E;gradientColor=#F78E04;gradientDirection=north;fillColor=#D05C17;strokeColor=#ffffff;dashed=0;verticalLabelPosition=bottom;verticalAlign=top;align=center;html=1;fontSize=12;fontStyle=0;aspect=fixed;shape=mxgraph.aws4.resourceIcon;resIcon=mxgraph.aws4.containers;" parent="yQbVkZ1Mlvk6sgAwkrUm-3" vertex="1">
          <mxGeometry x="110" y="108" width="78" height="78" as="geometry" />
        </mxCell>
        <mxCell id="yQbVkZ1Mlvk6sgAwkrUm-9" value="ODM CONTAINERS" style="text;html=1;align=center;verticalAlign=middle;resizable=0;points=[];autosize=1;fontColor=#A9C4EB;" parent="yQbVkZ1Mlvk6sgAwkrUm-3" vertex="1">
          <mxGeometry x="70" y="190" width="120" height="20" as="geometry" />
        </mxCell>
        <mxCell id="yQbVkZ1Mlvk6sgAwkrUm-10" value="" style="shape=image;verticalLabelPosition=bottom;labelBackgroundColor=default;verticalAlign=top;aspect=fixed;imageAspect=0;image=data:image/png,iVBORw0KGgoAAAANSUhEUgAAACYAAAAnCAYAAABjYToLAAAAAXNSR0IArs4c6QAAAJBlWElmTU0AKgAAAAgABgEGAAMAAAABAAIAAAESAAMAAAABAAEAAAEaAAUAAAABAAAAVgEbAAUAAAABAAAAXgEoAAMAAAABAAIAAIdpAAQAAAABAAAAZgAAAAAAAABIAAAAAQAAAEgAAAABAAOgAQADAAAAAQABAACgAgAEAAAAAQAAACagAwAEAAAAAQAAACcAAAAAAsjZzAAAAAlwSFlzAAALEwAACxMBAJqcGAAAAm1pVFh0WE1MOmNvbS5hZG9iZS54bXAAAAAAADx4OnhtcG1ldGEgeG1sbnM6eD0iYWRvYmU6bnM6bWV0YS8iIHg6eG1wdGs9IlhNUCBDb3JlIDYuMC4wIj4KICAgPHJkZjpSREYgeG1sbnM6cmRmPSJodHRwOi8vd3d3LnczLm9yZy8xOTk5LzAyLzIyLXJkZi1zeW50YXgtbnMjIj4KICAgICAgPHJkZjpEZXNjcmlwdGlvbiByZGY6YWJvdXQ9IiIKICAgICAgICAgICAgeG1sbnM6dGlmZj0iaHR0cDovL25zLmFkb2JlLmNvbS90aWZmLzEuMC8iPgogICAgICAgICA8dGlmZjpSZXNvbHV0aW9uVW5pdD4yPC90aWZmOlJlc29sdXRpb25Vbml0PgogICAgICAgICA8dGlmZjpYUmVzb2x1dGlvbj43MjwvdGlmZjpYUmVzb2x1dGlvbj4KICAgICAgICAgPHRpZmY6WVJlc29sdXRpb24+NzI8L3RpZmY6WVJlc29sdXRpb24+CiAgICAgICAgIDx0aWZmOk9yaWVudGF0aW9uPjE8L3RpZmY6T3JpZW50YXRpb24+CiAgICAgICAgIDx0aWZmOkNvbXByZXNzaW9uPjE8L3RpZmY6Q29tcHJlc3Npb24+CiAgICAgICAgIDx0aWZmOlBob3RvbWV0cmljSW50ZXJwcmV0YXRpb24+MjwvdGlmZjpQaG90b21ldHJpY0ludGVycHJldGF0aW9uPgogICAgICA8L3JkZjpEZXNjcmlwdGlvbj4KICAgPC9yZGY6UkRGPgo8L3g6eG1wbWV0YT4KUeGkIgAACcxJREFUWAmtWGtsFNcVPvfOjGd3jXFxUACLdyGktAUJ45AqCnmQFqWFSKjl0dJUyo80TZNUFULKH6QYiT8oJFVJVYW2SqUgBAGpqCEJjzZVY0obHiZNwyOAwTYQbKjf9s7u7Mzc2+/c8a69tjGOy9HO7Mydc7/z3XPPOffOCBqDaCJBONFm/FNVwnOoXCorwVBKRtlUQF1EdVl6BVrQwI+1v5Sgz+hF711tdZ+7Xu46qkpIvUxpsQQ2Z2stKkho1yBp4Quh20HnihT6uFbiQz+QdePnT+0Sa/ZFo7U2KmKndlQ5c9rltCTJ9QB+usQWc8mSRJGiMNKEH2kdO0UIQRZQbT716eRCfQn9dmZI7aqvUNcWP1cX3IngHYmltz5UKaJgnRS00U3aUyinKBMoUn3ItwPIzx3oU9LBuUSSnwmblaZt2nL2lL587MZI5G6HS7qGZGA/sEjbYkuJay0nkEmDVF/MjIQ55JkhiVMpyBFI5vzosAj1Jic8cVrUFMZY1G9YYhxLfn3Tk9IS2x3XmuWlQxO9wyoXwY18wwQZI1VqU+BHDSrSv3DnzDg4XOyxp4sEoSK8+qaVlpRvObac1dsbmudDSCnEcYRnCofOT2wR1JCbPAZjMjbbYFtsc7DykIaeLdVLE7bcbduyMp2NCLE8QDDmkOMW/3aChNOXiKFPcEGsZzlwS1GnAf37LzlXShMWhaG6kQ3VD8s2naztfxp7tnDvbameJi2533VlVdobREqzh9D2lUqypi0kMWkeiXH3mL66t5XUzYukrn1KuhMxLS0cNp7x5N1eDLmURb6v6lSkVqU2nbyW1+beRvResjL1tMF1rSovExYPmkmRJOv+pWRXryVr+iKUAod0phvtmIdkOUgHFDWdovDUPorqj2GK4VlDLsYf7syO9TIRpZJ2VSarNoDDRrGGTK0zPse4RGbr4mpb2x+hHiVC5HRBOH6AYM9fTs63N5AonUDRmUMUNRwn3X3TqInxk0nOXgLiy4hyaQr+8jqF//4zaZ5ieE8wnIOFgT05jNioRah/2VCEjyRfPnUSpHRMrKZGpks+eLvUtdens/BWoTMQlSI5dQG5q7chphKU+9tvKPrPe6Q9rDr5TAdxkZpA1oIV5Dz6PFG2h8LTf0JOIDGsEtItn2MgJxCfOdwXJmmgFcSbTWk/3FWa++5PRE2NMlq+e3i21LQql0MMFdTZriLhlpJd9X3jqeDoHyg8visO7hKzNPZpa0xrF4Un90B/HDkPPRMTFHHSa6+DorOHiftrr3OI59gm24b2KuaC23rwIaFU9GTStVJFU8gmuUf5FLLue4TUrcsUfrIfTsbU8rQUCRSRpeyR8OwhUs3ncJyn3OFXKXdoK1G6HbG5jqxvfi/uz54cJGybOTAX5mQDUnuCvpOflYI+p0zOJ1l2r/FCdOsSqfZrJEqS6IFnQwRtTtLEXe7Ia+jrker4AmUkQ7q1kUqeqjGeVy3nSV35OK6BgwfI5RBcwOkNqWseHYfEWhBiQS4IG0aWya8+SM5jL8TNHB9oi91Y0Cy+4DSDR03pwCCMSElR81nS2W6SFdMRq6+Ru/bXJCffBw9z7esfpOEALsxJdlm5SYiQyf3TCEWUByblrn4dAPNINdVRdLEW/o0LajGbwXcgx7HFGchEEfxmio+9ReHHO0mn25C9j5G7bjuSaiHimKtDTI45MBfmJLwt33pAWuq4Mo2sg7qEkuD+eAfJCZWUq0XA//OPpv126T6Y2rD3TADeNMn0+IvkLPoB4vYS+btfihMCg8EwSKJ0qEgukcIOExaPzAgzVybY5cSZFF34iMLaN+NHt6lB8cNRnLk/F2XEXoCEiC4fw2zcb2zFHou9xlyYk8xiEAVYfiYssmZUmaANzxzENCCD0HbXRGIt9TMowO8aG9bM6hg/5mXMMCfZkw61GphlHB8lpQizCPHQgVHi/m4LiqzubTM22JaJyT4bzIU5yettuawfgm7ebwh83dWMspCIg5O3NqaWDBjSmIkyBrKfMx6BzzbYFiebEXBgLsxJXm0Rbb1+lLMQdCaLUO3D83+FniTnwfVkfe2JOHPQbgAYZKwHYyAJGJOx2Yaxxe2ILebAXJiTXdupby7MqpZJZWK62adiKtXVT7B8/I6ch59FzfkVhZ8eoKjxpAlcftmIZbQejPX5ZUWUpIhjyl640kwf22Bb+am0gd0FLszJ9Kp99hsHHp5btsIL+lxqRoBCvng12YvXkiifjCVnNDWsj/NIfyiquqsF26N3KMAWyZQwFGGWlGPR0Us97y39/ZmVvIiL6x3hke5MuMItEfxGxsUELlcU/OttClEyLGxpxMRZ2F1gOSpU6rzn0DSi5D2Ld2SzPDVQdAVbpvYmDBZ4faQ4x8CBmAvgBBPTTa3BwbPNWW/JrFQqyu/FuANnZ+cX2FHsxgYJRDhjC8RGZDPMQ/TnAssVgLfknI0DxEF8nW7OeMwFzTre9vz98pXGe+ftnz8lsT6BV6wCOe7IU8j7e0MoP/oBiF/qkr3MRzEOB30Pildje26/Dy4MyS6gGmi2erntdVe9LN9zghZLHigPPNZ/Rs1jxRbyttg2c6jpUzDEWPtosqGusS33ZsN/c6amDuEW49zVM9vg2GKbbJs5MBc2Ulhrzp0jvXz6hHMd2WhpRcqpLMfbS/HYWP3uCYcsf99o7ozoeEO6rrc3+uWrBzqwvY2lQIxvP7jc0f34zIrPOzPh8vEJq6w8ieEAYOCK1dfv//rjvLJx3OgM6USjd6OtV/30xUP1nw0ELSLGD96/1H61dlb55ba0esK1Zao8aZGDkeWTdWDnsVznsRpbAzp1NdPa5gU/+/n79Uc2DwID72JhB01MXD7Q4UXPnGpKN3x2PUu4Jnx6MktGsfbo7zjzGIOxGJOx2QbbYpuDkYZ4jBX2Id6qf9ReX3p94j9avWBGV1rNyWJXnUQBTrkSWQsoyBA009p/4ozjOOKjF58b6m8FdKE5S40d/uEwkM/fqLpY+8Jvh7xtGIDYQj/WkKs3nppX6VK0DtO6ceI4Z8o94yyaVGZRBb7YJBxhSDLPfBzmr3n7kg00teNL0c2eiNp6I2rtDZr9UG3zydrz0rsXxvZ9bCDDHVVVTjS5Z5rr6PUw/DRIzh3vWsZ7KXgxgW9eHMwsIZa0LL6leTlNnq+o24+wlVGXwHOnH4hdVkvZtefq7sIXxdhcfN67mqxumlpuhckq7BWWKaXwDVbMxpRWwGlmlce1j2t8g9VXpJTHsWJ8GNmZuvF0vWsNPmsMxBvp+o5TOVxnGBeba0jMP0uiI1vpphynvEe4vMJTmfYzXhB0TUjc8M99nfQrNeY7xJ3CcYiZ/wEb3ZeW698xLQAAAABJRU5ErkJggg==;" parent="1" vertex="1">
          <mxGeometry x="580" y="140" width="38" height="39" as="geometry" />
        </mxCell>
        <mxCell id="yQbVkZ1Mlvk6sgAwkrUm-21" value="" style="rounded=0;whiteSpace=wrap;html=1;fontColor=#A9C4EB;" parent="1" vertex="1">
          <mxGeometry x="122" y="50" width="330" height="220" as="geometry" />
        </mxCell>
        <mxCell id="yQbVkZ1Mlvk6sgAwkrUm-11" value="" style="verticalLabelPosition=bottom;html=1;verticalAlign=top;align=center;strokeColor=none;fillColor=#00BEF2;shape=mxgraph.azure.computer;pointerEvents=1;fontColor=#A9C4EB;" parent="1" vertex="1">
          <mxGeometry x="170" y="207" width="50" height="45" as="geometry" />
        </mxCell>
        <mxCell id="yQbVkZ1Mlvk6sgAwkrUm-22" value="" style="sketch=0;points=[[0,0,0],[0.25,0,0],[0.5,0,0],[0.75,0,0],[1,0,0],[0,1,0],[0.25,1,0],[0.5,1,0],[0.75,1,0],[1,1,0],[0,0.25,0],[0,0.5,0],[0,0.75,0],[1,0.25,0],[1,0.5,0],[1,0.75,0]];points=[[0,0,0],[0.25,0,0],[0.5,0,0],[0.75,0,0],[1,0,0],[0,1,0],[0.25,1,0],[0.5,1,0],[0.75,1,0],[1,1,0],[0,0.25,0],[0,0.5,0],[0,0.75,0],[1,0.25,0],[1,0.5,0],[1,0.75,0]];outlineConnect=0;fontColor=#232F3E;gradientColor=#F34482;gradientDirection=north;fillColor=#BC1356;strokeColor=#ffffff;dashed=0;verticalLabelPosition=bottom;verticalAlign=top;align=center;html=1;fontSize=12;fontStyle=0;aspect=fixed;shape=mxgraph.aws4.resourceIcon;resIcon=mxgraph.aws4.cloudformation;" parent="1" vertex="1">
          <mxGeometry x="341" y="61" width="62" height="62" as="geometry" />
        </mxCell>
        <mxCell id="yQbVkZ1Mlvk6sgAwkrUm-24" value="" style="verticalLabelPosition=bottom;html=1;verticalAlign=top;align=center;strokeColor=none;fillColor=#00BEF2;shape=mxgraph.azure.cloud_services_configuration_file;pointerEvents=1;fontColor=#A9C4EB;" parent="1" vertex="1">
          <mxGeometry x="170" y="62" width="57.5" height="60" as="geometry" />
        </mxCell>
        <mxCell id="yQbVkZ1Mlvk6sgAwkrUm-25" value="&lt;div&gt;docker-compose&amp;nbsp;&lt;/div&gt;&lt;div&gt;+ ecs-composex extensions&lt;br&gt;&lt;/div&gt;&lt;div&gt;&lt;br&gt;&lt;/div&gt;" style="text;html=1;align=center;verticalAlign=middle;resizable=0;points=[];autosize=1;fontColor=#A9C4EB;" parent="1" vertex="1">
          <mxGeometry x="125" y="119" width="170" height="60" as="geometry" />
        </mxCell>
        <mxCell id="yQbVkZ1Mlvk6sgAwkrUm-26" value="" style="endArrow=classic;html=1;rounded=0;fontColor=#A9C4EB;fillColor=#dae8fc;strokeColor=#6c8ebf;strokeWidth=3;" parent="1" edge="1">
          <mxGeometry width="50" height="50" relative="1" as="geometry">
            <mxPoint x="220" y="160" as="sourcePoint" />
            <mxPoint x="260" y="190" as="targetPoint" />
          </mxGeometry>
        </mxCell>
        <mxCell id="yQbVkZ1Mlvk6sgAwkrUm-28" value="" style="endArrow=classic;html=1;rounded=0;fontColor=#A9C4EB;fillColor=#dae8fc;strokeColor=#6c8ebf;strokeWidth=3;" parent="1" edge="1">
          <mxGeometry width="50" height="50" relative="1" as="geometry">
            <mxPoint x="330" y="190" as="sourcePoint" />
            <mxPoint x="380" y="152" as="targetPoint" />
          </mxGeometry>
        </mxCell>
        <mxCell id="yQbVkZ1Mlvk6sgAwkrUm-29" value="" style="endArrow=classic;html=1;rounded=0;fontColor=#A9C4EB;fillColor=#dae8fc;strokeColor=#6c8ebf;strokeWidth=3;" parent="1" edge="1">
          <mxGeometry width="50" height="50" relative="1" as="geometry">
            <mxPoint x="460" y="116" as="sourcePoint" />
            <mxPoint x="586" y="116" as="targetPoint" />
          </mxGeometry>
        </mxCell>
        <mxCell id="yQbVkZ1Mlvk6sgAwkrUm-31" value="" style="shape=image;verticalLabelPosition=bottom;labelBackgroundColor=default;verticalAlign=top;aspect=fixed;imageAspect=0;image=https://upload.wikimedia.org/wikipedia/commons/thumb/5/53/Eo_circle_teal_number-2.svg/800px-Eo_circle_teal_number-2.svg.png;" parent="1" vertex="1">
          <mxGeometry x="391" y="152" width="28.5" height="28.5" as="geometry" />
        </mxCell>
        <mxCell id="yQbVkZ1Mlvk6sgAwkrUm-34" value="" style="shape=image;verticalLabelPosition=bottom;labelBackgroundColor=default;verticalAlign=top;aspect=fixed;imageAspect=0;image=https://upload.wikimedia.org/wikipedia/commons/thumb/2/29/Eo_circle_teal_number-1.svg/800px-Eo_circle_teal_number-1.svg.png;" parent="1" vertex="1">
          <mxGeometry x="170" y="166.01" width="30" height="30" as="geometry" />
        </mxCell>
        <mxCell id="yQbVkZ1Mlvk6sgAwkrUm-35" value="" style="shape=image;verticalLabelPosition=bottom;labelBackgroundColor=default;verticalAlign=top;aspect=fixed;imageAspect=0;image=https://upload.wikimedia.org/wikipedia/commons/thumb/2/2f/Eo_circle_teal_number-3.svg/800px-Eo_circle_teal_number-3.svg.png;" parent="1" vertex="1">
          <mxGeometry x="500" y="62" width="30" height="30" as="geometry" />
        </mxCell>
        <mxCell id="-3cmrAWqZunsYnbX4t1o-3" value="" style="edgeStyle=orthogonalEdgeStyle;rounded=0;orthogonalLoop=1;jettySize=auto;html=1;" edge="1" parent="1" source="yQbVkZ1Mlvk6sgAwkrUm-36" target="yQbVkZ1Mlvk6sgAwkrUm-22">
          <mxGeometry relative="1" as="geometry" />
        </mxCell>
        <mxCell id="yQbVkZ1Mlvk6sgAwkrUm-36" value="&lt;div&gt;CloudFormation&lt;/div&gt;" style="text;html=1;align=center;verticalAlign=middle;resizable=0;points=[];autosize=1;fontColor=#A9C4EB;" parent="1" vertex="1">
          <mxGeometry x="321" y="126.5" width="100" height="20" as="geometry" />
        </mxCell>
        <mxCell id="yQbVkZ1Mlvk6sgAwkrUm-38" value="Creation" style="text;html=1;align=center;verticalAlign=middle;resizable=0;points=[];autosize=1;fontColor=#A9C4EB;" parent="1" vertex="1">
          <mxGeometry x="487" y="92" width="60" height="20" as="geometry" />
        </mxCell>
        <mxCell id="yQbVkZ1Mlvk6sgAwkrUm-39" value="" style="endArrow=classic;html=1;rounded=0;fontColor=#A9C4EB;fillColor=#dae8fc;strokeColor=#6c8ebf;strokeWidth=3;" parent="1" edge="1">
          <mxGeometry width="50" height="50" relative="1" as="geometry">
            <mxPoint x="445" y="340" as="sourcePoint" />
            <mxPoint x="570.75" y="190" as="targetPoint" />
          </mxGeometry>
        </mxCell>
        <mxCell id="yQbVkZ1Mlvk6sgAwkrUm-40" value="ODM User" style="text;html=1;align=center;verticalAlign=middle;resizable=0;points=[];autosize=1;fontColor=#A9C4EB;" parent="1" vertex="1">
          <mxGeometry x="450" y="347" width="70" height="20" as="geometry" />
        </mxCell>
        <mxCell id="yQbVkZ1Mlvk6sgAwkrUm-41" value="" style="verticalLabelPosition=bottom;html=1;verticalAlign=top;align=center;strokeColor=none;fillColor=#00BEF2;shape=mxgraph.azure.user;fontColor=#A9C4EB;" parent="1" vertex="1">
          <mxGeometry x="400" y="332" width="47.5" height="50" as="geometry" />
        </mxCell>
        <mxCell id="yQbVkZ1Mlvk6sgAwkrUm-43" value="" style="shape=image;verticalLabelPosition=bottom;labelBackgroundColor=default;verticalAlign=top;aspect=fixed;imageAspect=0;image=https://upload.wikimedia.org/wikipedia/commons/thumb/e/ed/Eo_circle_teal_number-4.svg/800px-Eo_circle_teal_number-4.svg.png;" parent="1" vertex="1">
          <mxGeometry x="485" y="310" width="30" height="30" as="geometry" />
        </mxCell>
        <mxCell id="-3cmrAWqZunsYnbX4t1o-1" value="" style="shape=image;verticalLabelPosition=bottom;labelBackgroundColor=default;verticalAlign=top;aspect=fixed;imageAspect=0;image=data:image/png,iVBORw0KGgoAAAANSUhEUgAAAIgAAACKCAYAAABxcgJZAAAMPmlDQ1BJQ0MgUHJvZmlsZQAASImVVwdYU8kWnltSIbQAAlJCb4JIDSAlhBZAercRkgChxBgIKnZ0UcG1iwVs6KqIYqfZETuLYsO+WFBQ1sWCXXmTArruK9+b75s7//3nzH/OnDtz7x0A1E9yxeJcVAOAPFGBJDYkgJGcksogdQMy0AM6gAKMubx8MSs6OgLAMtj+vby7CRBZe81BpvXP/v9aNPmCfB4ASDTE6fx8Xh7EhwDAK3liSQEARBlvPqVALMOwAm0JDBDihTKcqcCVMpyuwPvkNvGxbIhbACCrcrmSTADUrkCeUcjLhBpqfRA7ifhCEQDqDIh98/Im8SFOg9gG2oghlukz03/QyfybZvqQJpebOYQVc5EXcqAwX5zLnfZ/puN/l7xc6aAPK1hVsyShsbI5w7zdypkULsOqEPeK0iOjINaC+IOQL7eHGKVmSUMTFPaoIS+fDXMGdCF24nMDwyE2hDhYlBsZoeTTM4TBHIjhCkGnCgs48RDrQbxQkB8Up7TZLJkUq/SF1mVI2Cwlf54rkfuV+XogzUlgKfVfZwk4Sn1MrSgrPgliKsQWhcLESIjVIHbMz4kLV9qMLspiRw7aSKSxsvgtII4ViEICFPpYYYYkOFZpX5qXPzhfbHOWkBOpxAcKsuJDFfnBWnhcefxwLtgVgYiVMKgjyE+OGJwLXxAYpJg71i0QJcQpdT6ICwJiFWNxqjg3WmmPmwlyQ2S8GcSu+YVxyrF4YgFckAp9PENcEB2viBMvyuaGRSviwZeBCMAGgYABpLCmg0kgGwjbeut74Z2iJxhwgQRkAgFwUDKDI5LkPSJ4jQNF4E+IBCB/aFyAvFcACiH/dYhVXB1Ahry3UD4iBzyFOA+Eg1x4L5WPEg15SwRPICP8h3curDwYby6ssv5/zw+y3xkWZCKUjHTQI0N90JIYRAwkhhKDiba4Ae6Le+MR8OoPqzPOxD0H5/HdnvCU0E54RLhB6CTcnigslvwU5RjQCfWDlblI/zEXuBXUdMMDcB+oDpVxXdwAOOCu0A8L94Oe3SDLVsYtywrjJ+2/zeCHp6G0ozhRUMowij/F5ueRanZqbkMqslz/mB9FrOlD+WYP9fzsn/1D9vmwDf/ZEluIHcTOYaewC9hRrB4wsBNYA9aKHZPhodX1RL66Br3FyuPJgTrCf/gbfLKyTOY71Tj1OH1R9BUIpsre0YA9STxNIszMKmCw4BdBwOCIeI4jGM5Ozq4AyL4vitfXmxj5dwPRbf3OzfsDAJ8TAwMDR75zYScA2O8Bt3/jd86GCT8dKgCcb+RJJYUKDpddCPAtoQ53mj4wBubABs7HGbgDb+APgkAYiALxIAVMgNFnwXUuAVPADDAXlIAysAysBuvBJrAV7AR7wAFQD46CU+AsuASugBvgLlw9XeAF6APvwGcEQUgIDaEj+ogJYonYI84IE/FFgpAIJBZJQdKQTESESJEZyDykDFmBrEe2INXIfqQROYVcQNqR28hDpAd5jXxCMVQV1UaNUCt0JMpEWWg4Go+ORzPRyWgROh9dgq5Fq9DdaB16Cr2E3kA70RdoPwYwFUwXM8UcMCbGxqKwVCwDk2CzsFKsHKvCarEm+JyvYZ1YL/YRJ+J0nIE7wBUciifgPHwyPgtfjK/Hd+J1eAt+DX+I9+HfCDSCIcGe4EXgEJIJmYQphBJCOWE74TDhDNxLXYR3RCJRl2hN9IB7MYWYTZxOXEzcQNxLPElsJz4m9pNIJH2SPcmHFEXikgpIJaR1pN2kE6SrpC7SB7IK2YTsTA4mp5JF5GJyOXkX+Tj5KvkZ+TNFg2JJ8aJEUfiUaZSllG2UJsplShflM1WTak31ocZTs6lzqWuptdQz1HvUNyoqKmYqnioxKkKVOSprVfapnFd5qPJRVUvVTpWtOk5VqrpEdYfqSdXbqm9oNJoVzZ+WSiugLaFV007THtA+qNHVHNU4any12WoVanVqV9VeqlPULdVZ6hPUi9TL1Q+qX1bv1aBoWGmwNbgaszQqNBo1OjT6NemaozSjNPM0F2vu0ryg2a1F0rLSCtLia83X2qp1WusxHaOb09l0Hn0efRv9DL1Lm6htrc3RztYu096j3abdp6Ol46qTqDNVp0LnmE6nLqZrpcvRzdVdqntA96bup2FGw1jDBMMWDasddnXYe73hev56Ar1Svb16N/Q+6TP0g/Rz9Jfr1+vfN8AN7AxiDKYYbDQ4Y9A7XHu493De8NLhB4bfMUQN7QxjDacbbjVsNew3MjYKMRIbrTM6bdRrrGvsb5xtvMr4uHGPCd3E10RossrkhMlzhg6DxchlrGW0MPpMDU1DTaWmW0zbTD+bWZslmBWb7TW7b041Z5pnmK8ybzbvszCxGGMxw6LG4o4lxZJpmWW5xvKc5Xsra6skqwVW9Vbd1nrWHOsi6xrrezY0Gz+byTZVNtdtibZM2xzbDbZX7FA7N7ssuwq7y/aovbu90H6DffsIwgjPEaIRVSM6HFQdWA6FDjUODx11HSMcix3rHV+OtBiZOnL5yHMjvzm5OeU6bXO6O0prVNio4lFNo1472znznCucr7vQXIJdZrs0uLxytXcVuG50veVGdxvjtsCt2e2ru4e7xL3WvcfDwiPNo9Kjg6nNjGYuZp73JHgGeM72POr50cvdq8DrgNdf3g7eOd67vLtHW48WjN42+rGPmQ/XZ4tPpy/DN813s2+nn6kf16/K75G/uT/ff7v/M5YtK5u1m/UywClAEnA44D3biz2TfTIQCwwJLA1sC9IKSghaH/Qg2Cw4M7gmuC/ELWR6yMlQQmh46PLQDo4Rh8ep5vSFeYTNDGsJVw2PC18f/ijCLkIS0TQGHRM2ZuWYe5GWkaLI+igQxYlaGXU/2jp6cvSRGGJMdExFzNPYUbEzYs/F0eMmxu2KexcfEL80/m6CTYI0oTlRPXFcYnXi+6TApBVJnckjk2cmX0oxSBGmNKSSUhNTt6f2jw0au3ps1zi3cSXjbo63Hj91/IUJBhNyJxybqD6RO/FgGiEtKW1X2hduFLeK25/OSa9M7+OxeWt4L/j+/FX8HoGPYIXgWYZPxoqM7kyfzJWZPVl+WeVZvUK2cL3wVXZo9qbs9zlROTtyBnKTcvfmkfPS8hpFWqIcUcsk40lTJ7WL7cUl4s7JXpNXT+6ThEu25yP54/MbCrThj3yr1Eb6i/RhoW9hReGHKYlTDk7VnCqa2jrNbtqiac+Kgot+m45P501vnmE6Y+6MhzNZM7fMQmalz2qebT57/uyuOSFzds6lzs2Z+3uxU/GK4rfzkuY1zTeaP2f+419CfqkpUSuRlHQs8F6waSG+ULiwbZHLonWLvpXySy+WOZWVl31ZzFt88ddRv679dWBJxpK2pe5LNy4jLhMtu7ncb/nOFZorilY8XjlmZd0qxqrSVW9XT1x9ody1fNMa6hrpms61EWsb1lmsW7buy/qs9TcqAir2VhpWLqp8v4G/4epG/421m4w2lW36tFm4+daWkC11VVZV5VuJWwu3Pt2WuO3cb8zfqrcbbC/b/nWHaEfnztidLdUe1dW7DHctrUFrpDU9u8ftvrIncE9DrUPtlr26e8v2gX3Sfc/3p+2/eSD8QPNB5sHaQ5aHKg/TD5fWIXXT6vrqs+o7G1Ia2hvDGpubvJsOH3E8suOo6dGKYzrHlh6nHp9/fOBE0Yn+k+KTvacyTz1unth893Ty6estMS1tZ8LPnD8bfPb0Oda5E+d9zh+94HWh8SLzYv0l90t1rW6th393+/1wm3tb3WWPyw1XPK80tY9uP37V7+qpa4HXzl7nXL90I/JG+82Em7c6xnV03uLf6r6de/vVncI7n+/OuUe4V3pf4375A8MHVX/Y/rG3073z2MPAh62P4h7dfcx7/OJJ/pMvXfOf0p6WPzN5Vt3t3H20J7jnyvOxz7teiF987i35U/PPypc2Lw/95f9Xa19yX9cryauB14vf6L/Z8db1bXN/dP+Dd3nvPr8v/aD/YedH5sdzn5I+Pfs85Qvpy9qvtl+bvoV/uzeQNzAg5kq48l8BDFY0IwOA1zsAoKUAQIfnM+pYxflPXhDFmVWOwH/CijOivLgDUAv/32N64d9NBwD7tsHjF9RXHwdANA2AeE+AurgM1cGzmvxcKStEeA7YHPM1PS8d/JuiOHP+EPfPLZCpuoKf238BKvF8acNVRA0AAACiZVhJZk1NACoAAAAIAAYBBgADAAAAAQACAAABEgADAAAAAQABAAABGgAFAAAAAQAAAFYBGwAFAAAAAQAAAF4BKAADAAAAAQACAACHaQAEAAAAAQAAAGYAAAAAAAAAkAAAAAEAAACQAAAAAQADkoYABwAAABIAAACQoAIABAAAAAEAAACIoAMABAAAAAEAAACKAAAAAEFTQ0lJAAAAU2NyZWVuc2hvdPFLPzUAAAAJcEhZcwAAFiUAABYlAUlSJPAAAANTaVRYdFhNTDpjb20uYWRvYmUueG1wAAAAAAA8eDp4bXBtZXRhIHhtbG5zOng9ImFkb2JlOm5zOm1ldGEvIiB4OnhtcHRrPSJYTVAgQ29yZSA2LjAuMCI+CiAgIDxyZGY6UkRGIHhtbG5zOnJkZj0iaHR0cDovL3d3dy53My5vcmcvMTk5OS8wMi8yMi1yZGYtc3ludGF4LW5zIyI+CiAgICAgIDxyZGY6RGVzY3JpcHRpb24gcmRmOmFib3V0PSIiCiAgICAgICAgICAgIHhtbG5zOnRpZmY9Imh0dHA6Ly9ucy5hZG9iZS5jb20vdGlmZi8xLjAvIgogICAgICAgICAgICB4bWxuczpleGlmPSJodHRwOi8vbnMuYWRvYmUuY29tL2V4aWYvMS4wLyI+CiAgICAgICAgIDx0aWZmOkNvbXByZXNzaW9uPjE8L3RpZmY6Q29tcHJlc3Npb24+CiAgICAgICAgIDx0aWZmOlJlc29sdXRpb25Vbml0PjI8L3RpZmY6UmVzb2x1dGlvblVuaXQ+CiAgICAgICAgIDx0aWZmOlhSZXNvbHV0aW9uPjE0NDwvdGlmZjpYUmVzb2x1dGlvbj4KICAgICAgICAgPHRpZmY6WVJlc29sdXRpb24+MTQ0PC90aWZmOllSZXNvbHV0aW9uPgogICAgICAgICA8dGlmZjpQaG90b21ldHJpY0ludGVycHJldGF0aW9uPjI8L3RpZmY6UGhvdG9tZXRyaWNJbnRlcnByZXRhdGlvbj4KICAgICAgICAgPHRpZmY6T3JpZW50YXRpb24+MTwvdGlmZjpPcmllbnRhdGlvbj4KICAgICAgICAgPGV4aWY6UGl4ZWxYRGltZW5zaW9uPjEzNjwvZXhpZjpQaXhlbFhEaW1lbnNpb24+CiAgICAgICAgIDxleGlmOlVzZXJDb21tZW50PlNjcmVlbnNob3Q8L2V4aWY6VXNlckNvbW1lbnQ+CiAgICAgICAgIDxleGlmOlBpeGVsWURpbWVuc2lvbj4xMzg8L2V4aWY6UGl4ZWxZRGltZW5zaW9uPgogICAgICA8L3JkZjpEZXNjcmlwdGlvbj4KICAgPC9yZGY6UkRGPgo8L3g6eG1wbWV0YT4KeWfJRQAAQABJREFUeAHUvdeSJUeSpmmHBmcZkZwgE0Ch6EzPtMyM7L7kvsK+TMtc7G7T6qJAAQkkJ8Hp4ft9v7lHBqpqei5WpGXHI/y4u7kRNVU1NTU1NfPO//F//vfF/sFlOT+fldl8WObzfpkt+qXTGZZ+f5lrn7BOWSw6pRTOBZd/t6MpM+V63xwdgWhPw9p7rnnXhtVXi8UC+GucDvXodLpJMlvMCTdup/R6/TIcUudej8dumU2n5fLqirrPSq/fI4g010cSXT/dvKn5GdLGsTzOm5H+F7jvdKal2zkr/dFVr1ycl3J6WspstoBJSpkHiQXE1JpM5y0iff73rCplgeegt2XQgCTy29MAIzXP7TXxeCNzzDn5C6EkVkNFgpOLNep252UwmHE1H3DAy+m0wxXGMM/OLOH+VGa7fvyLmz9/35b7FxH/fxzQKePS60xKv9tdB0yRIgKWOPsgYMh1mOsc8swXU6SKcSryuPl3OCojVoEgo0jYGnbNDA08Er8eMEHu2+cmuEtas/DRG1kOKUFwDu/ntIzzq2kYwzhKkuFwGSSVMp1NaniNbvIcf84I7etP8NQQSvv3RV0LyP+Ha3qORa/0FzJCWYYZlBJ2MbWbsYsp84F0gTlgEhhowe9f1rTBVoD5a/c3iXXz/ib0N9MZbrygtf7KHPxdp75mVkKSFJIkCT+NdGhzt/V2OekleQUDmRfdhfkpJWSOXpdutDMvU3AwQ1p2CSvdXukuiEdaa77g/ae6V0hkx+ujBvF4I6x5+ecM8+M4P47/47htpjdLuhm/xcnNsGuIbtx8yudGYG7bHH4ME08wh7jp253MZz2QRb8Lc8xgCvWQRSFCEVGwBREFnKgcIurmYWA9awunyERsgZYIAnjzbNPXOAvLuUYs8UKMmsRUwpFrm2WSG9IezfvmseWRWm5FgcxhFyoc1gxeKJMJUhPYhsMBTDNAD0Gq9HiP9LAxXI0nXH0mHIapdWjrb70IIcvKvLXe3oO0/ApOCB6AbsJrnPassBvXw3J/jK9aXvJp01zj17S1vJpfzePHv5ZrHsL7CfYap+Za71t4jMo9Xap0QYLQashjNkPMzkWCzEGLkmjJm0xgEk8R4o8Xs07fTuUrQ9DiYKQuSq1Xw2yhAlcrDXDXABLsQZxaQQkik3jYqdXrAuKlLKgp81mmvzUf4TF/Y1SJUO+Fr+ZgLqbJL5fQiaco3YAzm9W0M4ivkkrHkjra9czsVu1a+IM7kkdFtAQU0da7LV+8WToJkTqF1ldh8dc4dt8VjoRIgNS3rXeNlTjkDSsTraYR59dvg2srYv5KN1ndPHgWP8ERrzgsoRN9SljNq9Ejr2nQ4DJw8bo9AhtpGxj7nR79rsiAOVRQybV0aEFWdg5hatcyC1I6tK4O2BOBSGKQyMhHxZbyuxBr0B+AS0+YzPcz8+ad6QJxBdxW2xJLhM5FqpW0eCK24tz2IRGM27E7sDJUEMhy5Yf4ModpRRSFULFIPn5JSTiIUcnmGhiseAqnf+2hc4lsJKYS1Njmv7DFEK2brsjoKKwiB6J1PMuEk+ccMgSMxRmwzE8Y7J7y3rpXuFMsYQveLYgXwjaMkqiJR8u1MUJUGdGzJ6FB6GxqXWQEwSN/GLvTQQ1IfjZw805Ogb/inDQJS6JEsA7cfDqDM6EVN55Ng+C2b2T1j0ok01uwiAcQEOW7mplpDb9+quE8G4bs4K9ytAQLc7UAyxDG4ZQ5PJKPgaSSSCIsR2Bryg8RavyaroElhDI8GVbC8lgZxPzMpDLIp1ZOnhZgwc2RbkPCAkfSGi6yRSDRurRQs1KSBVTSeg3slsq/KXPTXmDkNFyfOWqZ3lA+YYnW1LtCBGETy5gyMtcUYmoOqLtgqO3VslrpnJLFbyLJ3EpvgWvDpF0tsNbN0vizGI4Kd80gQTUjEhOHe8M8YX0iNYkqCCYXHgrIn9lKQFLBMBK+Zl4R2EHNl5O7hT48/TS8P0WqTMmjYTAVwJ7lkB8NvjlqKyp2a5wLh5McFqOCVBh2ijBB0zThUVulNakB3qVblKjNmQo2FfJ9y+xKmtScsMQhY+sXiZSyG+III1gU4akn8eAT4GkYh9C0XqSn6X0Kg3snYclSHHn12TwqUczIYH8MFTqO4MWrwUmUewokUKmAlEZymKKPhA6OkdIz9MYp4fP5NPB2ocOAcYX19VCyjydKcJQFJVIN5o0FGcOARso1TFHDfC/c/JHI5kPEWtV6Z+J61MqAHYcAHhRWxTVApV+zu6mjgBBVvDQVikJot0BSu4eKCK4WTmAI0DBHQf9JeuEI11OmSE7FuIK4VJDkKtVNs27ujSsDVyapiLV6HCK/KY+UqSUB5GVNlRLCQ3iYUYKYStg8uFK34KAJaXWtpDGsJk82lmNc6yaX2zWYT9ILc47aCLwNMxRaURBEQJjj01X82HWJBnU5edSusNh924AsL7gSP3ZHlokUgUEMrjqMrZT3OerVOtQuuEKXV8IXGGv9g9/UAwkia9So/t48yCiIJ9HM/lUEWGnFXa1wB8T27I6sN4DMZuMyx7g04wRC3in2eMW7TrXAEUxkzgBp/jBJlxYcxTEI5rUINof8UEnKnKfW5mUa+12RV7uH68olATgM0qmPRAJx6lHmUZnali9SPQn2SNV9aIiSbodyeI4kRRxWPIv8Rt+AIQOeia2fZUgo8u70WqIQA7y1Ui5whpDCRVzw116JSHpxbJmMqmSJXAdl0Fu24ow2OZHOokKqBeI+5XVpsIA+g5F4zXvepnEiPcimoqWmM03V17xWZoqKk9wIIr0sFIWXyGC4BvoiZ80hERI5iEC34NqCtUCsWarVETEmSeuCCaLggRT792GU1ioGFyjCtQzz8VBfgSTgRcVLcSxazVVERjzLiJxpKbyztJZBtNHYwiSqCAtP8ETCnEFKxQzxlARtBSWE95Ym47TPgYZn880/P0om2amNY1nAH8asqJPRKuOR3iwaBhA3QbIjIJJbohESHhhlKAkrLj2Fx3pTvhml3up1/TQ0k0zpMmaMCGykSoxeHzwzAFiQh2FTpPdcTTWlSQOZ2Lz8FzhgMd/mmvKMXYHj7tNDpDzhTS2bd8nYipmiVlDAtCbaKi3Cgubc85bKYJq29XC11TsacjSjIWrA/MXyUO7WZM1wsbVGSqzaHMlNhJCryiBPsk4V/2IUBBqPCsN2DUx2RSLc1mVLFqJ61LsKd0fRLXxNOusT87qVsSSvEjbKqEzi6SEC23pbQ+tmPlXfIBH1JW1DA8sUkden9QmexBXpKCcMZnn81zLJ0/JkDhmDEdGiGRWFoczfuCmD8hANgz5kImw2FUNgA+kgY8h76heLLnrKYsL7URjIyI4k+70hZWjjMlmg5ZV5VEZv8Wdx9bC+tXjDqMpNBqnRhM+svOanvaZSZB3RCCPAtT1EaR8R16ejEiFTuduuBML5bmnJnOZlPL4M9/t+jr6xwCC3kKmApiKSeOSboiRGZ0weIE7tnfSkIL6/tWJaOANfxSJ5BAMCzEka0tYWaV34QxL4qvb7hDVEDX8FBtKLGfIxX7u82khEJulgVCH1Lwiekz8R82w688hpefXMTdJacFi8BtmoZAxhpEE5ZI50hWEjhcnXdpHyLcP8G3uNuIoOClixxZi1eUc6O/S2gYqLSifrIzNIj6CGGJGA6b4MM8cG3uauPvvLQfmRIICU1wEKgFrgDEy/Rx9sP9VT5+hP0JavynBpUpZXMNIvd2AEDE3AIadGBMokEKrXYzaUtFf9yzIejWEUzNkAPF2MCIe7eep0J0goRaxShEKo7Nz3Mgh9rl1RN12JyhlSI5UzvEqJ2u+PSWlLlLEQtyJMYhMb3Z5zKVefPSphxbIdtJKEcAnEn/l25iOuMhpxiP3p1xi1bkkrLByfJgN5dy3iCU9+KpiWzCnllVoyvtfAyTV5mi9BIbh4oKEoRanXmJllSeX8iDYRJXo6Prr6ylzmx2QjROg480x9ZLZqarAcyUwtCKuqgveWVvFR73302RftqQRJxCbMC881WY0keqycQPUBbmmwKGsbvbKx1Sk7O52yvt4rKyv0lPSHVm6ulMjwq1Z4dDUqJydXuBMsytXVooxG8zIZ175SUSvHdxGRVeun2rTOawYBntqVVBHrowCazrpoUOsw41hkDKSODBJGCXKNywnD9zEmNQ9cJbcHGYQxQFoq7HODDJFAHrWVigG7Nsu1tcpI1K0V1ebDcd1Ieetf4Msbf4TTvMVJezZlkb5lQWMmVEaijrb2KdLjanwVQ2bpyezGqYwjc8wbOB29aLdR77BujvZkXPk1DcJ6C7OA5miuVjUpmuBcah38jQS5+cp7JYg4UtapewyREEPy7tGVbGz0y+07w3L3frc8eNgvt251yyoMMggNBIiTlg+fBLiT4/Py+nUph4fdcnE5K6NLmOSK+Z6pg/Zl8h9yAgblWFmRkvkhrgKYvjMEs3+EaIAl8j1r60dawGBBvEQQMZEy1kMJge0AxCl5lEC+N4bMEINYWqbxqtQhAvdknnjchlbmW/Ou7w2UEJzElXWujYjNcwD1RzjNM0S3Th6mJY90fZXxAlNySgR+lDv9cgnvH53imzKaoISOM1KRQWRSmU5+aLvMOmIKYsA99QSHXctI3Rt4rxmkQtKWFlybJ2d7L4yVQRK3TXDzKiJ8tlATXyEpujDJSrm9NyiPHi6V3V0dbagywEYHAZHKHJGgmNva7ME807K9NSyj8bTQGGASjDwMnbvMJGsqjsWSJJVBEGooZiLBXOR6h7WastuWJv3yTsI7vsspInRXEGaOVEOkmM7urJqkJXw9iCBDWa8wB0wWbjC8ecXb2HBg+LxqUpKAF+ZdGcNnGaQyCSj2vUeuoDvMVdEuo+XZcrmP8mxUAK5nkyx598vZxby8/Tgph6eTcn6pExM4nKi3EB8YIjXsKmEE55Zon7yzEYib2iVf6x2EVrxY7xtHKifeGukobLmHRQW7/pmxdwDItWZUh6ij6QXkwoGkd1lW1yx4G6bolJXlQVmCOQTqEuJf6HlES1leXqIrGpbhoF92tgfEu1UmI7sVyE5DHdMqVFZFYP5ELuUGDnELwDrwqJCF2WAS4/LTnFxy1FQAzlM9jeHRxmwV2yiAhhrt+mgfPqVvEyY9wbJdF7jDS9wHDCLJZzKE8R0gVAb5BMV1zsmamjUBQW2lYi2KcJKnrmLBOvucgsj/6GxRnr+eltdvr8q7j2fl4PCcLhu9ZCKOqvSVSbSszghDXQmDOIoZDtC9YJL48rQA3URA2yBgBpkjUq5pNJUnlCBtwvZKVG8rq8hRtKwFom1xRcFnEJaW31sp/cEq0kTmmJXTs8tydHxSjg4PiDOHKbbKztZG6W9uwEAYepA681XLd8iLBjGBP22VYiLY4B3XIBGK9BjC6c02QK9R+c3QORBV8afRzPG+8evMLIky8iByWo9sV3GcOMRL3oRxl98UWO9+/CvSOCO+STSAYssAg2cVeVTMiEynD2p7AxaQKhGCZqKoW8uQOYUkYt4r/6GDN7XqQBxYbQgZtpKXiqjlLyh79ZL3S0tlea3PiQ64jPLfHeMBOAaXNjoVVcjodAGnXUqUeWw1C5jGTG3woWeI31Y30PLg1S4agNrTeMHD/0AHIWZzVEB7aKjdIJ5ntWiI50nzjt/mmzdvyqvXb8rbNygbAPPg/l26nwfxs3AafYxfxWQEEmGMCWP52Rjk2Udaij/StVYB5oNrsZ8MnWhlhIQQinKszcKRjbaWKUgROVPnfCa0nClzE+g0i1m1sLZMUguo1baoeogIjlwCQX1uAymng8JbFeFZWRkyQltbw6YgvDABDUJpqjI9DSyzMmFUMoX5sWOhI5DS1hyGtf3p/mDXB+EUNUoPmYQQS/eMlJIx0jgYKfaAQSbB2Gh3e/t2F+YYMjjYRII7tWGjOS3Hx6NyNWHEV0UYoxgkBqeWWCdfVVBtSO18VPjbkiV+GEMobtxfM5Dh9ZDMZAh52pMMruMBfhQgKKgYsyXEOkfTt/WbzQSZdnY+Kgf7p+Xt24Nw6/LSGhIEo004XMecUk6Or8qH96eMZgCIIW4degFrEEFbbBhAxtjcXi5b20sw4RIM4sxwBdaLqqT8fkW552e0pOMpiIJkKL6dxRonCLL1pAWbjlShhKkpu2Ip9bIuMqYOyhlSyvwQR99Uh+/r68CJvrVOGk0RJiXboFQYtFxejBilIUFPwcH5BUP6kQyyBIM4oabmriPSCviTeRsQrBAZ1e4EfJMj4xVwO0ZCMBDYLGWVspeXV8rS6rCsLjMIWIFRBzAHFHPkN2TU0H99jvI/KZcXTuhNSK+rBWWQt0wzdqTAvcYyCWZ5KQ1AlHd1GC0DyYyc4snkzY+xqg5iAmRfxDYJM7wDbDOrk2hcDe/ap+l5xgnGUuEogStkuQaQK8Sn4Nkq74gLQ1nmgm7pAM/5f/ynP5Z3b07LsLcFsMwvcGQ+Z6BjziXMdg5zDMuzz+9T0btlbQ2iE6/Op9gaQTLc6+TaaHZRPhzulx++Pyx/+vpDOTtG/C7t0ho3gEOJAsr1n+CvzmbaUhwl1Rajl5ieZEqEi8sz6jNCesEYVGVjs1/u3t0sTz97WNYg1BjygahaX5DdTStFShB+hn3nhzfn5eWrw/Lu3Xk5OwVTi03yW8E4aPuji8W3VZ1ALNrNYlTOvQo/mKS7xV60OCX/k7J1a1GePVsvD59sl7sre2UZEap/iF3cJowzYLi4tbFVdm8tl7XV9fLih4vy7u1RGosN2OrVIbW4l9R205Ss2IEDIgiwU+mrM0MSyxg9lV3/ZC4OZ5DFmxWOBKn3MgmB1+LDCP6bKS2NzNWMFV0yh+JUEW//oB/rQiWDM3ksVskGTAPw3LgopWcM1d6/PS6vXx6hwJrXiPQCOCtLKxNOLK+cve4ySNCuIsBdylmUs8tRGeEe6PC3P8CEvwrjdGmVPcqhdepXe4695egYi+1YAuA6Oe2Tf+pIPg3Tp1+VQWwxdF0Y8LQlTKcMrbCnDIYzGLRfVjbJH0L00MA7zCfJCBcY+S7OsTsgsmMYxErckeguDWEybb5YRoKMy/4hrM5wfsywVIVcAnV7MJ8TauRjo55iB7LhLA3V5yAGzN7tjzLa65Hv2C6DuvfAgRg+P2fUAtGc31Kibm/BpCifizkSFpGiofHDhwskyThulFUyKE2kOGcaLQxjl2WOtWUDg3+BML8yl5KlegIKgtP9QvBvHOblmWl2mMQKTtCWx1SSxpMiprTYBWK1gxQR8Z2OnvJLMAcEJs6lto+RHlzrIHeGBFmN7jC+oinBIENE6Pb2dvniJ/fKk8c75fa91bK5tYy4HZbTi1F5/mK/HNJF6Ty9tblSPntyq6yvLZWH928hflfLzubd8t13p+WPv98vHxHztaKKZE36tGiAFjHOLgc+kDBDh7i8vET895ASO2WFvn0FHr99dxk4ttGjNlLW8rIo6pRTRg4vX55Rj2nZ2KEVMzrbQtpt0B88fcaIjZFap3sOwS/oaq/SrfYHKyB7wJCe0ieqoepL2oHqCM0hvKPBDqORlVWk1r3b5dHjpfLg0Uq5tbfC6G85DP/+3WWMjEvD1Sj9TmEMaUSfPR6UzfU1cNEv339/XJ4//8BAgZFkzAdL6HGUDw2klVJfv1u4WQLFNtSjsXFLuEKAEVCkSpWyDhT6SB0kiBzyiUtaIXIdyk0YhOrJwdXngJZDQW0/78hmDjcvkBqVI5UeEkfpYh/Poxq2Ng+QEYMVyOqjY6xA6AcPhuXp57vlyy8flvv3t+h/YUSMQh8/InHeHZfvvj8qB0cgnUm67S2oiBJ4/+4GTLRU9nZXaFV2I2shytLSOXoJDse04ukUZRIE2XI1mqm0KSD1Ylf8Cl+fFrm5uV5295bLzh75PoABP9uCYdGBwN7oclL2j0Zl/91FefniLHaIdbqgW8R/+HCrbO1Qh5WNcg+mnk5RZgfn6A7ntOhLhqMO/ZkjAV7rHF1KKRiF11bpoizsSpvL5c7dJRhtrTx8tFzu3YVhYIJLJNbR4QXdyHEkcL9/Tre7jHGSRrEzhEGRpjQiuy+t0ZPJKVes1uhEUybuulqZratMkM4CSUqXZ7cHV/C+MouQKHXi6wOSbBDiyrN2Mca4cUQMBYWSm2pQs7Q8CuvTJy7BmcMlugIUJf0TNEQp7mQSHpAmKmQCIhCOQiRKskICwTBwTA9u3tyipT5aLX/zn7fLk6frIHsVZEM60ux/PC+//tdvyvcvDug6OiAaaQSiPyxNy8HbGUS8Kr/81e0ga4miHtyj1W0/oPVWSfLyJVr+EXNAMMhwuA6j9MnD0QcdEt2HQ/SVZTSWzWG5tbPCqGutfPElBsB7S2XVLgysXiH53r25Kr//l3d0jWfl7IRpAvpW/Xi3IdL+01IePd0qD2j1Tj88fbxc9m4NypMna7Toj+Vf/uXbSKnBYIOh8DINhQaifYhG4dB9NrtEEe4T/1ZR73j2+YARC/hFol6cj8tLGOMlXfLr18flGEZRp9rcWitPnz4A30i9FZgzkofuCGnV6+8xyinoZW/KIXWfzc8hNt3QELMEjTfDYVq7jFolK4iWsPxLRZ6AS21TFZwukojqXrz8y6OGVVa5VmAjXsgzipojGrLkVHSmhUAMm6jiLPaJJvMmlzCPLXYJTXBjfbPs3V4tn8EYn3++XfYw38u7lxdXdCenIPgt3cZrkINYv1rFMLREv05JDIOvTqkOZWyixGocElEbiNk7twdlG8ttofsYMKn48tVFOaX1K73GY5nVCT3B6MMEtESkz+3ba+XOvTWmDVbLfZhsfaMbi+/JKVIDKfCCruv758fl/esRQ3W7WGtD93SO/jI7qm59NIz7D5FAMLgjn226niETmufndAko4BenLMo6tWVfgGwYoL8GzBgZmaK4fXu5PHsKHp6sIDm66YKN9/7tWfnh+T7S4whpdIrdgy42Izes2XSLPZh0aXmL9Cso1oOyt6dVeiN6VKd7UYZv5mGSK6yvSlBdJOaRokhT/XagpafWnFj6JB16Tbph9DLntWxMN5TUhlMgcBRNH5OJWrZ9uMMo7BlIraw0iwam+Kp9q6P5iCX7Mirime6FQiZwvkNClcWNjWG5vXunPHywS6sZIFqHZR2lUIVXU7JD5T/+8Q/YVd6XI7qV2RiCO2JCl5lcAYtKHUPQ04Nx+d2vP5RjRkdffnWnrC2vpzK3MOn/6udIFnSEjbU53cJR+fj+pEyZJFxZsquhWwHBu+gR/+GX2+Xxk50opmu05GX65IuzCSOuk/Lm9UH59k9vyoc32BrOMArSNYpqNf4BukAXJH4A1qvLjzBCr5ydbZevvnpQdm9vFgzJ5dH9dcr7srx+eFK++9NReUk3Obk8igI7Ga8yCrlVvvrpw6pzofdsbWPrQB85w7bxzdfvy/c/7APDafn44QwTwQgGZwwHfGOU8devXjNCOobgd6HHbrl3fxvJsVTu3LG720bKIBW/3yi///335T0jq+nkkrg05pzSS83CAQSoBR8QEalovaoiqw/KnBntyaRlkAgQW4bMkYaee3IJ12SYGGZB7KiFxzEFLKBnmFmXzDObmNjmoZZejT060/adAaaF376zjpW1g/6wDYNslkePVBDhVewlBwdn5fWbA1rMq/Ld8+dlf/+Ycui3p4wQEM0aQHq0XnWI6SV6xuKyXNDHj6+OUdwwbDG03NtdhtmWYt7vowiXKYhbmsM8tCYYaYS5X3jXVHAfraPzbKD/0MoZcau0np6eY8o+weAHHC/elxffvi0njEr6nTtEWKsTX9YXpM7QviW4IyAbUrdzUtZQwBeLW+hJa2UNqbb2AB2F6zJpljC+defHMCDwoMM/ejgoXz5dQyklLjqXnmXnJxcwxX75/rtXlH9AF6nUobEh/SSoxJkyT3HKsHhRTjit0zFS7Da62w4SbBMpinK7ugTOGQ2NL6JjHXxAgsH4rvMJItOFIDmULORiQ7ZLtYFLRxu9XY/XH+sgkb8S2BvT1rkB9Q7H63Y1C5RHkTKduVxTAxAMABPoi1Cn/FGB+lPuZ5z6i2D4QuzP5+uI3YeIs0LrXqN1G58hHKMOTfXPX7wq//wv/1S0yjqUlHsnjD5niKyOkFPWsm7btNzR+VkZYxzqY9BiKE+8H8rB+w0U3bt0FbsonJswxbB8+Wy73Lm1VB7Rhbz/gCT5cAxsQxjzPq1uD/GMzuPoHIY+Z/X6e6zBL1++K69evqflnZSzQ3SYyz7KsfJxA7FunTHSXUIgCN4fokshWccMwz++PSy/n31ET9ktn3/xCDvKbRhxo9xGkq3+bK/sbjFSWx+jW0zQmyyblk+XtkWXhpkEhfai/PDd9+U5zPGG8o9pMKMrmVFDGToUXVMdZTgnhvILDr797k35uD+kcd0up18+Lr/85c/oam4Ht48ZhS0vPYVptstvfo0OBc2uLrV/ONGnfkh3otWN7jd0bSR/VHpGMEqVHgRqhrnKDnkpPEHrbw4ZhFsZwJZHHukm4lUGpR0JNKm4wECZF6AvAGnZPgAjjDaNNYjg6GVleTMSYB3r4NAxPvkhjGi9Na8lROz2FtbDJUQ4Ix7N84spYg8bQ1/7CKMezdUjrJea3Ht4s/VgkgGEQrWxkwOhjAy4rpDXproJZa1jpr7FqOT9lkgZMPqgtd3aAJ5qedSmEwsBTtfMM5MGJXUPabexEWPXYq5bgqOlyiAjuz3cFAaUYUPo4hjl8H3NqQGwovdBh261hwxfwpayykhn2N0Ettu0ame2b9HVbkQZHg5pvSBZ102mnuhmBijNq1Gk60rHVfSCDTANZLYGJRGz4yqgl0gw24xW1Zg8wLxGMvHY3cCOM9ihsQ1gfjvHMxT/Uo5PVL5t7IRpeVX6Qwe3wpAOOp1TO8K1HUWCVOYIrXnx40MGsFAQGIUUbof5hhh4hlBEhUaFR7E3Zh5/NLoAEE3sGqBGEJZKwyQYYInryQ/AOOqgO02+XfLRyPQMzfwR3c4Ek/HMYbNIpvhwNEqxPh1KKUKRYFSQP7s+MJuIfZCyitK6stoL4gcwtYVpcNveXKMVrmQSEWkKAmU44CFKRCoScn0NhXUXwjHvsoS93yG93WlW3NGlSCw98JWuGve4IcwLz0hXBkb0/+bdh5HAj/6gzonEwMcMN8PWzx7fFp3EpQtAkmnNtR7aKZaYkPvi88eZxzphIk7HKmuvYik+hHOwBJvQKGJNjkSHWcDjAISuUPja+nptbBDW2ovrzfWl8vOf3cOmc1W+/hq6vLhC2YdG6BgZ7kNcmSSNlQrb3SzQ+bQTxxYCvqoQANDmxpBUnLoDoEonNNAHVWJTeD0Bgfdxt4OaCzKXITTT6+WlOyHjGXKyIKntCcSINJbzhUDRWwBO8bm2tgniNMFrIkc2ZQKKJOSgdJC3wh/mKJU5NBOHy7h3hlfHXcu3q8tsKPBoTeyDwCEK2Ar9SR1mG07OwSJlobxpk9liFnoLqNfXacG2BFsGp3JUi3C1HFdYLD/2HatItYwqfOLA0YblgykRJDLJvxLRcsWr58zGhV5FDLpLRzWMojaRord411TNeJZruvjdqBQELAhL9t4bV5woAVIcYR5O/q0xDF5bWQeeIV1slxGREu+COkkfBxngCnaoVa0NTwOedO9A139bByELKzHTm8mJJMR5FjzLZdYbxkGic6iHoIiBVEcqWvkcjirGNHh1ukgTCGd4vJxIoe7ioTFqdYV+HpGsI4ye1uZDBFqWhAdBIEJcWJQtVmT4JxEkSt9mRDyttsJi32nFCcqhpp5xvxU3FCZUoY/nGpmO0HdsqavoDAvM1hPgngBLl3yUJJloA9tON9jC1EkEH5prh4q0wybH0Je8+V+OhJVhVD6FohqrhM36SFB3Fri8wkWS+6EmfcrRsOx7q2O9JLDHAGDFdyQaOLdrC3PwTimmddZ01pkiwrheUcMYR1Tl05HVAMWVKlGWjACD0DCFlyZlYtGSUZpXX2iv6ivGbx4C7HsJ4X1OSo+/AwBnYZTDTgDz0GdDv9TdWysoVbcAfMxoYp0wjDOpoQUgXZAgvXg4ma+FAyJImsAF+lxeovidYxzSfrLCsIKqwCAIOuFRIqA4OeNre/NP3WZ9Q6OWE4ioinQ7x6cXwOCsKC0itQBLIldu8CTUe+uUH/PjfkqZMpuzuOpP47kjEyhBHyTh9HrTRsBP4LPVi9gBzxHmztwC6+gSmUH4EnrFkJFbD0LY9S3pWIVRbpkZWeG/Yo7iDDvKCfBK9CU0eVszO16F0I5AJKTGNHiMo4p+FXcPzfPp8qmP+JoAT8sgYRIagodMJK5BTXn/flyOUISv3FaLVh0do2GUOjlHZO1bFOjIUzxpmAOM5qhlUyQHmVZ08gs79WgqKlCFbsbJOrscCSwAazDHPayPKyhEO0zTywi376Bo3XK6WpUNZQ002nbNomUO5zTOMUYdHjIL+v41Ng9sBIxopiqlhUk4lMLsdATQak1z8p1rDOkxesAItrOLRfHZAwhgM3ZCb1zevDsEEaeMJBz+UklNyrYScoxrHlp7pr6pqyOCMb4Utp8luh8nzXSWLkg7Rwlzukn9Pey6FsIQczY6PYir/TREQbR1mbUeYKDqd1Am2YjHLnSuOEFyMt4BP91yhxHFnTtr2EioExLqI0P4g/2Tsn/AsJe94eaMVKz3GH8Z/UkkkK04k4xhDuCSYamR4c7sphEoaqCHtIhhUnaVyDC0xkGlspOdnqfg5MNHXBNO7QXs8sAFzOD2Yhobpavt2Z0d7A0yNYHhsy/BePvpFAjONLgwjcCSIKGODzyddveU05lAY3SwhNa5jkIkE2xsIAVWHfpKGjVoGUWuBBj7XQB3eSalBNkjlDQ93517OcdKOputU0GYhBnblENF3K9jgu2ji9vj0sq4PBzvlL27dzHPUwZ1uKAbfPvxJKbp48OCvYGSmW5XuQzSQKbDuozGgNHh3kgHWZh+eYlwGGSGfUFdydartJrEKQgCUk8pozKXFgoG7FplkA4jnIHSR92HvLRKTnGQchETsylle4fhKUTrMem3xtwRwOKEDDN/0Jn7qJwcwYi4R0yZnpiSn11G7QaJCgx67KvwK9mq24LMDixItDh72/RMQ7lx0qbNO42hcu2kahiErkscXyFdlX5ODlofySv9pUt9oBE3/BB5ABPQJABHJdMCIF4FT4RwGpmUekvVR1oPle30UdeZZpdZZCQU9rIKEVHETR7GcISQQpk/wWeOW7oLRLf7bNSdfWAouoheHwrDgCLo3XtcF0/OGd6KYFuvfiIgAOLaxY2cB2FYubbOMJY5h8srbRToPXD/JQj4yEzmh31GU5frtMwBE1yOsMgeENIasQRLIAHTmOeaHcekXaSS4UEUKMncUhoCjCRTQygZxjW3EkkJQ3VJAi5wTgodKUhFvfUa06zvorLFABfMs1nZZQZXtVDd6wrD19FJwebDtMKhXaJuEu7uRD0hoEY7ftOtAmwlQ5jUJ5qa5YIX76kAZdYW772n7yLpwIu0ry6aNDIkQiUpV5PKiqRVGmlhNj+XrNgw6LhCP2VmIHAmL6xIIse/ZhDpYj5gQwlCWhSpOd5TYyyOl+XVmwkmZnVgopCNCmZ7VUypFK2uqivQgjCaKULPz68wHTMtjla9c2uLbohJtt0exJ5hPXVsf4CRSrO70kY0kTHiXUVzxHwMxoUw2TETeKfnXfpzTcSKZtbd0NCwuWFIcya0hxEO2wHujTdbvoyQmosgkG69/M8Zpc2JxzXqzpVWKh7mdAtZ/4oNQoW7B0NlERl4yjJQBYcKJqLcUZ2NwyF96g98IwgzJSPQB7FQvulOLukCT3BIxpU3iqGK7Axmsx4SNPCEZhVeG2Y9yBw4ZZJWYlQra6jAu0roJjL5mN6Sm3rnjvtPj6ABppMBDabsBYTOKIwgMFDTcl9xxPXmYTp9Jhz26El9wkTSKyaCxmMmsN4zdMNI01FsyRzkMBAxGKOWWUuzjge8a2iefMbklC0eA41zC999+w4AGPd/+TlWz+1MWT94uJcZ4vWN/fL3//crrKsoUxIAEHWSlg3nMNUM24LzEmcwwMkxlliQvEZ35r4ZAxypFcUu0rrAtXGB41JXayGVrMxeEZUFV7Ye8lSbt9URIWVpHS4LRjPOfiKdyBjmJgjpM6OLW8xRLOenpMaiDG6y0Z1SRKLR7cbwRK4O9avjjn26U/IosrTW+LSS0H3gUE+RYnQx3OuWkBZOTUEh0sNCgbcdcUhoiRTGqOWFMawDYQDKSQQ5mvLrqd5nnZFGXjUzXL+r+bW8mGDe1qtSqjKNUKZcs62HmbeHFQVGkJSC05fpo3CWmc2DfRdU8S4MYj6VQZboxB1/u+RhgfPQHZTYIVr8iNnQY3xIX71k/gAxq2ueEuAhU+0bm0yIMS09wV/1475K4jHT/Mw2XOq9phKFFNLlEaS5gMj5mQnSwaFt9ZCXEFo8MQS5/gZDk87WVSmNHKJSwAoGMpJRDFvzpuUECSI/bQZkc68Or7HLobnXKrbRC9AJKvFlwopM8WP30Qoo5AAEh0mkC4GOOrzPMygWkutRHQxDVOKTHkbv0OgsHUjJ36vlCLlUkhYK/gqjjFEZ5BMFlYuRGjKEym0LVK2kGaXa/BKP0+gelhEGq+Heh0Hq2ybG9YOpaspYLLkV4QLqpJcOyRf2x8TpUDFfOGfSAxiHvhtYNZ2v0cdyMt2EwChrKI2XLJo6Pu4iSS4x/f5QDvdHGMmelPtrGMnIfwc/i//8Xx6jgG6VP3x9gE/EBRNtzL2MsFDq10B3oxPwUt8ZVsdHHBKhYaB+mAgG09+SrkFdQQTVhdvWp1Y+DC9D8C52AQkRRIpQTPkyjhk7ikA/sm6GWGLTqVJndBLqnR0OiNvRUBcm0MaAPwZ+plPcH3s0hOBJHAGCrMkonTqgt2nShcmVcIGMcofUKwKEeOpeE7v/gG5KmVUGkVGsvam8tocwE2pwy40ymPClPr6X8YzFwdU8vdZ8pHEgSRnXDJK+J5FM7A2RuHqvwURtILAAVNZjwBQTx9NE7ZGhIkkltwPH9tDmNUsv42M6GmG9VAkGCJcDTMYD5gIGSKHLzLCi05ddhoD0XugqTMgxD3J/ZasMGCLPwLbj8umM9TiH9vsgJ3WBESmYwUczUlKKAHLFDWlUvAAM+IL2iFYRYJVEZiM9RFwy5DnMIZ7MRCaBahy1/g3xyFP9LK3cttXgKdjKPWmDM8q1zuBCJdBuJRKHd5VBwFeQ2fyCahnZUWGkkPQR/Jzg1e5I/KbLVWKIBCO1p5B6CCeJwqXSy7q0iPG+OQX4+rBgHpIfF6+echjXMEhlCFPAEPzyqrkHXVR0lv1CRXaDIH0eKczkEmPgpA8pZtgVFnpow/EOiKrCZVkVIUqR7MWKx7fi14mkd+9m5e/+7mV5hYPM3/7XJ+UeU+Tue7bFLOzP8Rhz6Kzp/QXrQEYY08b0KY6GhHKZCTIthB7u4zXG6Kb7v469GpOmsZDCxOJFEU+anIpn7kVCiBDEB0uEyzTWFSaBEL53F2aZyuFv7baqviG+xLlzF5JBHKSmKpTaTdCZXBusocpu0hIsU8zpX+uQk+CE6Y/RDg5cwgpyYCzwT7y5yjIyyBIkYNiKaz1auM3GzHxu4A9UmhmETiZt35tSBvB64yDPVnqk7sAaBrkRhUQ3JYiPtikypnBbc5tEbT1xHfZmOQRRJEIqpkW0Gl8angYWKgrC1dTnrl1BCcxMI4ais8sLpBESZBt7AOVt3cIRF88s3e9krtOTMQroPI4/+mienh9bNMSSGbim+emTydIJmDSeUSA1GwBHYlDDIFSkkkARHXI2RAvDiC0R6NHcZ3iLBGjiwmrkLSGMoxSyNRubcMwE0SlgtqwEzJX8VE6prx9IkEk9FglD2YbxMSYTDvGpSAepK0PgTQtuNKAJHzgPA5MX7yqLN3CbmfAE3hZm66AErExR68Rz6tbWr0kYpuM+lbjJHE0lwV01lBn/rxwWGQgCJIwgMyAjzU/FEGrzmrE7FRbQVMoxvH27aWhFvq8thujhUN8xhNTqyEhGzlbuHh5Ny9///YvyngVYv/qbp+XRE6er3WJiqfzqP97GfN/H02qM+9+HcvXyYyTQbIELH+KhLtHEkDZWVznhHUMmys3muMJnRcIgimZg0sIaootEDrqAyH5vE8APXJB7iaqeQH3mSDZG6mFikUAboNIEgEilxRxpIZPQkviXSNxD+BnT9TONfkg2mWuODjXBUnxFY7kkE0d9kTYaIHkWrTF/i2jKdcOZljF8DqOES3mfrrFthtJDoKxPe7WOUOBausgIBKX+ueGePP/8tGFRhtjKoaQwYU3S3PhAJC13wkO9DSBelTKpjARQifOdiLaSZJvNcHmX1mEa3ih0HHBpurb1OQcyg5lEjkPgc/xPXca4srFGlRY43eDniVPxnksAWI7Z7VxA9BNa3bs4+vRxTHJYqwSJzsH93BEOSzCEsTK0oxCVPRFruVVci9Ic6U4qeoTRo16po/dUPIuOlBhN4zBvY+VCuGZ8pQxQEK6kpNrSiiIm6CBTmDJ2DBBorsadQgBse7wHEtDUj3QhAYlq7hW+/KZrsEih9n3zrmGOCjGpWiaI9BCAyhwySI2TLAIjP/WohTUP5Bs88WgRvAuD1Aobp4ntpcLApUoCGUBGSazkY1Xt10C6IjvSQYCcmfSEa5Eg0fitNGkQmkGyXZEM4KSVWjqCAiKDJSSKSwV++9sXSJST8vmz23iK7+DfiZv/NiOXL+9jW9EAhU2Clqb/xWKOZYxq0LgZ5lIaZ3QgjFYEcQBf8CNiKcOW4Rv+KwuIyFoXEdmmEgUCbRfnsgLDtXDGiNUgPO/QHbJumQQqplHI7R6ySxGLma7QoWZ4tWtXkaMoy/kP54IcaXk6CEAjCUNbrF2KticZjES0O9KRJqwjTEbyqEDWG5lFBpJJ7JpyNUIifapXHs2hPbn1XgIRq+LEW+7I81qCGM3DOuTgGmT5rBglE4d+tpIaxxeGq6XTgoiT6eP0ayLUPhSdg2iexnaWsotF1cXPE5Y6jiGiLbvrfAmnzHXJpNsVC4+c2Vy4IJsFR0PKvXcHXwmceR4+uI0yzOwvzKUzjBv0ZtYTphsy+TNwxolynXWODUSJIc4CQ2WOOmIRifqPOFrh1LAVKIWDA7iiEJKXtbSuNsjMVfhEVpFcINFhrnuORe+CORxS6TjV6bAwi5FPT+ur1ljqaBmO9PpkhlcAjkXmSVpd63wHPiMN5Y7kSzBSpjbiComwfDrELEeIUmvgo5QK/civMpa51zc1PRUIU1iO4U0ZQRQBDaP9BYMkDyMFwCous2OyxYGVVgFL5kRTQYO5s7hZRqrDSBmGUYUjC06no23iK8z8Lq/aejCpj7EROHyj3/a1yxiiG8BshS7i9Khbnk/RKVgo5qBlxCTeI1acreH59fSzJ+SLJZPRQx8sO/zV23yI/53eWnVZopJNgijWzdvDgkSiV5mDURenhMyug6KSumcWWeTJtLkKH7kAaHKiLnYJ+kq4kBrjOWmoF7PNWC3oMjCxMWekK+Q2rn8bK+zpxvLLhU7Y4AoTX1n1HY7cY5yJXZyVjf4YgcnUA+pkj3Oth3BfR4LA/VeOGkokD+GFdlVaCW1D+NSZV6mj4Z6mMS4X3+d0BOQBQ8PU1wzSMk7e8dM+52pGpPJeYaIYr4fhMJEtC2RZeC1YwihmraRi2+SOahCphFswLuoooVonK6CRQDCJs7cy4hWa2gRpsmCHxCFdWAfzOuNWvNBXyvbeatkYrLEeV4JQIgxSuwL0Gft58+GsBq3aPcgYQBM47Oyi6UModZhMxImQIA14GuaQaWNytiVTj26Mb+o8wK4UIB/HOLFzgAQm7KmTG+jgrc80w8bGKlt1rZZ7rNfZYYabCV2yYQhPN6kz9eU9HKFhwoN95rc0peocS101IkjkCeVJaO0uQS3Q3rjJvTS5DvNeEiSQB++DIa8GtxF88uXN0wjU09DgStzcYJC88aeWeP0o4uNLKlcmPWzAfQ7DKNMhr4xjaIbC6h4yDM2gSh1IgjHg5PSSOZQrRn66GKLJ4xuqguuISGbSF0LNv4cOY1HOTZyi+L5BOZ0zE3fOgqrz083yi+EeyyRZ3SeDEc8yWjiUdjKss6rd9ONKEp6To1ArCe1e5Oqq3V+/MzMZFsmTrzd4BZBYSKOAX5GWhUucPbommWThqA3G1WG7R56reIfpPHX79gZrbbdYyrnBEotV/GN0bqpdcY85oiGwDdklYHXAd+HKMdKJ4bs6DohYAT8qxwtsPlFibTQwDpDcILfY5pSZG2kQ0oU2VoQj9WluRG2TunmbKPkJQxBqVmk8Xh2FMSP9iSGqKKqJ25xFJkS2kXskA8PaWJ+u3gnAtaGFRBKuemSRkAgarvRPyDoMWrpbJE1giBEI1u9SHwbj99waQgRBHBcKHe0jKbhesm5Fsf7gIcsa8FhT/XcEYN7mKZOJJHFUTwFWrvGOF2npDVOYKK2TGPUjBJXJtM102K2gcKoXaWJnvMEJY7PutdPFJ4VuKdICJDpL3WNB1hIOo84/baFM373Dirc7mzDJNpOROEvv6kxddQuZd91tLWDEAQ1pje5kDYfmD1sDpv7Rv1juKcw6VLV6CQUDrTYkYaw4Dm7FL5BUXUt9j7R0u2kYvKnS2/jJkh9vOFuGEAe2ACMkjPsmTtXNYJBaYEUWb2uEGxnyJgVVjAu6R9Ni0yplBIGsRFLkSqmIM6mXUybTEln1Ayuva2B8VOFRF1m7h6qVZsqNK/YEGYW5Cud5xkz9H+MxP2aTlnWI8PHdBLM8ox/4qA9ygxfryZk8nIGNZdKKSGCVYRdz250gNjWZk0gY9YUYOFsM/E78ucZ4MYf5ssmNzAVjRNk8Aya2aYBB9BTTNjHADXJtnSWcO1t4jLFGlxVuLuXcwZvOFfcDvN2yAgCrrjqMUxQaSdVtVlkisXKPJZO31lldt8TaWzzNPnqy0Q7rd/aZo5qwDGMBw1BT0mFOIA9dWNIIgdeRjm6dzj9pYHM1oxWpXytlWiMjpUanCOFCTQCoUlRpEYU972SO5pRpaBTqVtFBQkyCTOh/Pbypp9lKBZEoi8jNeSNlcnj1ZW2p2a6aINHrX5Uqdeimt5MTa05vT8nQFlW9vuzKKmOYT527AFAJycVpe9d/LDNhV3c7IowiPStcpqmnz0q5OQgOXDBnlMlUHOhrggwfdQiaO1SNVkjrU7Ft9KKIW90ci6vmT9Et3AGILoB5ouUVVvGxXHOL3QZu791iRdsOq9u2s65H73OqDcOxKAypd/4OZZtpAE3o4iO7GjBH4NzTysqwbKKr7O0W7D0LGOQCKeQibU5WIR6dYB86Z3SHbwszDUgWdDMYTekAV6SHWVA/u8a6hz6NUvpSvr2iulgQFKRIJ186wjS4PvubI89ysOefKak1xs1fGKLlqMoOn16mnwaChBtsoUoSi7pxhmCEEGRuSpoe/e7SEOWMSo3iFOTknmtJeOfiEvJxtx9bw4IrbYeWOMvC6Gef7bAOdzPLJbfZxJdkMVa62Zs4iiXXJgY8C4aO4wnu/TDAAFc3JcoS5QsHjQ6JoginRcMArj32vQY73SMdOjsE1pYxZ9ef2YLlnd0ztqXoQcQ1fHD3MOKpY9B9sI/JCu7jy+geSyyvkJnP8FE5Y8nkGT4t7z+8Yynp17gu7Ac/fpt3nYXru7u7DNnvIXFucc8kJRrsrT0crDaQSKy6e4yudcrWlx8+jFiGiVRhK0yXYZ7hrHXOlhJ1Rh0yMjLCogSC7WvlCl0XpY2TqjYYuxwt3b6TBjZw2dSjxjNuZYoE8gPB0phuOC3X1pdXJJPIJpayEp+zaX01XAOYRxvPON7LeTfjGmwXJaDVkKVDkVtSTce4C+IfgqDMsM4FTtaBgTFhatB6bo1Afodliyvl8UPW0n61U56yTcIGC53TShlNyauWbgFuqeRZDRYaofTb4D1n9cACPiWLih0v7MYyC20668noRIfgHutGehSg7WIJ/UKFeotdfXZ3mR9iWef9+7dZdL4Fs8gcKNkU6e7Rp7gW6lu7T1dxdOgO06zS/3BYfnjB9g3HeDdp+8BWs7Z+gdLqe6cYRuXu6RqSh4ZDXg7bV1nMvoIFeRcb0PYuW56vn5WdD1e4UE5I405KeKOd+DFsbEnYg6ynXRAsDrmAR6mnH4v1s5NIw20ZSGQEY2ItVMuNFOVViJAAaQPN/DG8Ht5VYubqPeiPlS/EN33lPqeeKyO1IskMJUDDJMmw5mU34ltXr2s4cu+Lc0Rnj2/2areoq+BwqKXFz9luUx/R3jITcTDILUYEXzxdYZ3tRvnJFyBtDzRgcEONSV62ChVQxXf9vq3OveTtskwUyLqe1a2sbW1IJf7UO/o4ZKw4FQxgerdndtnv3ah4soJtDaPcJhOG9+5tl8+/hCHuuGLP4SsEpHupa4Bc1Y/bII5NhwdsNIO33D5dhN2Em/ZdsJWFy0SnM5aDsJjcycRz9K1z3CuPTk+YdxqX71gkbh3dOmKH5SK3WBK6u7fFemZWA67DKCi0W9sb7KO2CkOgi8FQ5v8Rr/j3rAc+PKILw8/yQmmcbbcYfNMAOyxVHbLNhMZHLbX6uyoplB4e4QWbFrir9CfcFpr3xLXLgsZ1ss5IxMqZKDVJAm70SzV5+9vEsbQwj+FypuGVQ6+L5hV8UftEmGXOjJdWRZcf6gC0iOeVywEvqRitl2UN7KyU/TseM0z88stNli2ulVt3dT8cByka19bZjmqJPlwFWCmRkYySAJhdsJRPZvhMdyMs1Usc8LhX7C7puUXX5j6uKtMuf3AHny12CHCXRdcJ32f1/+dfsGRhD0ZGUmsoVNpOUKrPGbYf4SH38T0nXcHH9+w6eKDPbV3jM8L52mNpyf1i12BoZpvZNCbO2yjM7g45gWEuLtns5mSJTXNXmKnegPnP8b9dZ8mohsHlsskGN9u77I+CB935KY0Eu8ruxx5MVWCUHk5XDJHZ8fEKP1cXaMuYWdOCkq8uN8d7z1FTDOc3dKzQR/ryXxnDrsZQA4hPmkgQX386REB9SkQfpD1Hq8w6Umnva7/mXIIAQP0QqDKIGcmULn/wcK+yKxYX6Rq4ijHJ3ZjN53J0RlqGsEtO6zM6YEO3HbT7n//sUfny81t0LyAIsWtm+wen5es/fYcVdsaM72NanPuLOTln/2o3JRwclKuukeEtcdVRHFHEJYG4AxY2DbFmqt+45eXGxjrMcItNZNAt7tYtntQLIjVQRt2eM3osnHmJR90JG+a5rac+tm40c3zMRjH4wiqphnRLXUYWqywet8Vqkq8r7HCZZKss7QuFBWY6JWlXKZwTnKKOj7AuTz+ijL6lnhgD0Uf2WC/86OFD7nfQcxgV4ZTiorRb7G9yl22vjo52GPFcZDelU3QUmeX9+7PoL3ManGud60gS/MWWwpVuvTJAq4vIFt7bJ4AoaLJAymqJvsEgorUyR8MPPiahTEAp/LVHSBDiVmeUhgMiOSqT1OJIVaMmL42FOteokC7BCE6Jq1hqdFowXzHAv2ODJQ17eJh99owNVn6yV5482qb/B3DEv4uNfvjhdfn6m+9AtMsm2MxufQspYrdRlTF9QeTp1gag4uzEoQyST4+gjDo89KMEd9lwZYO+350Tt7g+ZOsIlc/bt92cTgkHGpFEGTHA/BKa2rEUlLYIMvrk6yo6eiPeuUgcpKIDSAiR63reyrhgAziEoV3RJpPUr1ooOd0qSpO/i8JwhKArQx3BTkIaumxLFVfZZQFYl9miaoVdC9aowzaL1dyz7JRFaGest3G1gdLm+AjTARsHnrD04/07jIxsO2F3UwceWrClmUxARfwPrbuYORcAAEAASURBVAGQI0EyU8sgLQ3z1ghi2GvLEvZfigKVG19VJksMSEF8tf6awnv5MFnIiZwxYNHybNFuJjNkiaNLB7SuCtk6OwF1xDgI0gr5t//pCQop/T42hbU10IO+sc8+5V//8Xn5E9Lju+cvyvrWJl7xSiqUMaSGRHd7CEdJOv+6rFO7g4f+InaDUzccAbrVVczfd1fK3/ztduZ3lhm6LtPqV9Atllkn7C6CGDMzmqn9osgFdhDmDgMDto5aopx1XCPv6y7JNICCs9peKtJF/PUCdKsW/Ii+5u9a0ooDbUAwAqcMadcorsyvT7e3hCTqZwG82K5DZaqM9KObdY6Lae3dHXZEZN7rAvvS2dkeHwFgoRQmmx++Pyn/MP4B6e2Irhkeh4jgLVfglaChtUByqvnbFGCSxmFIQvL8I04xognkNBMYx4q03YvEMYFXzqSXIMbzwdbDo0dzVURrYJrTYuYsHXCMijBB1LMYanPBKjSXU26XnyA5HjyoHwwYo43q2PzDD25N9Tp7l71nBV3BAacO54TPsmyl3HOqi2iQitcbDKgE0IFZ2O1mNhkh3EE8P/1snT3S1uK2qFGuBTh2EoCvXnMa2siW17YyMeLuBF3ycQsMVkik/MqkhPPuutreXD8Yrz62DdBMzTfSzYwTueJZXKfxETZHUkmKtHajce9goWWiHktMWLnGSIxVjQxtd/cYA9KDXV6Ih1n53e8EojYO01V6qmM0mYk/aumzqkKFgzxbCWK066OlqonlJCEz06TWKiczBPtEsBJWEgLwpr4zjCM1Mh1Fkk2sorQOV/tfXu1TgSP66E1aK0MxlLdbuBn+b//7ExTCPboO9lslizOGgQdYFp8//8hamrfl228OsAfgl4q2zm4clOvV8b4jFHie+ZfqdkCxwkU3JLM4knALCncE3GJ7qNu7WDx3N+N57wr46AjUr25kY5YATDqnBhwGO0scwjf5RyI20Ywa/HCx7Fr7YJ5gGRe4oFzQZxrRSRrfiVZPD99H6nDVcJi8MvUAfHQ3pqFSHKTj13yuJTwhKulj4DUfGScDNDJ3a29XAlbTgfjytCF7SjXpaeYePpu7VxmmVVJTsD8Sub4W8T7YV2lDyAEjZJo8MSlUaJLCwixERjG90PPLa58jOXQgSit2fe0xlT5OX+uM5wbGJnc6/ALmuP9gB5HNTjgofW9euzcpege7DL7EWPTxHVr8BWtfkP9u2lt3VpQAnICW/THS8mpLFiYRUCWI5Uts5j4wjzs6cNQifG5se8Fq+0MWkI+ZIe5j0dUCKRzWxc3ddJbKmmKILYOYV/xbEPEqoEqFygji0IpX5VSix3nayUMQ4WxzGDKIEn+isaYXnWESrZ+k81nGcCsNu6FW8rixCxFwLzAcUlZS0XDcxEZf3s3oKK5rx37H+wpTLcd8SBdWrvk0b8lRuvEK2AXPe9np+hAgQ+uVu0gQFS5KkgGUFBHjFsCzB4VZIPUBVjLgHzRw9awFhUGibF2C1AuUqzGLrlkPs3qOF/ta+dnPPytPn7qn1xrEYgiJNNxnd+Hf/PMb9uziMyMHrOg7HpTRxS5lrMU+0utuQzD2UQcp7FMXQ5fjfZVeUBpiBMncO6UuktR51E0CV23G2ebq6GhGX31Q/vVf/pWh6iHQu4thXVmnLVF7gC1Uz3QXn1NbmNzJRhVZ6ggBs2IOLTxM6nvSGMcG5kDCqxbjGOfAoZjRKVl47QaUdGIOtiJtjafimzbunAwzvdlbHTyqyOq/4gIyjXsuPZUsRGYic6/81//2FbrVXizNKrZ5IYGMkEMaWwuvlsvZXo3ioxfuPzFIG8E31wcxGiYR6RGgcGwYBy5LLtdx641So3Kila1xgIVAOd1lCuyHzoZuBU/v3V02nvtsl+0jcUre20k3cYTB6eDjJVtHsg3lN0flFZLjSre9ifuDuW2TOwj74SI3ptUsT7UpRia0VaiIVVHtvSfsisx1FOGz0kSkhJmRBpghsvHLPnaM598elFc/fIQ52DWf1XNzFn651FN/Uj3fPq2blUHACPYTFcr6OTOZU0Ob5RMGcbP6HsaYsRZXaVe3fGqG4kSJ3QbG8BocyVQyNAyipFHXkUHU0p1XmmVPeUYzKPrFpaB4UnXoOt2DRMOgjrBTbEy/+Bmw8xieSR6W355t4+Xa0EfM1UMccQcuUy4PnxjEGL7kCK69gpTaJ5mZGRMhcSrxA75sxrsqbXxvCiPx6yOA1il+tG4soH7BYYcvFWyx/fRPv/qqPH58H0ZxiyS2WWOLyFdsfvvbX7MV5rdHfMXAuQdnex2pYFSLYQvbSYbHOktTNvk7HMVEAAEolSCqGcuq615FkyMc++W6XlZi6OKHiwEr/epWmyTM8JS1vTJH2YEYq/jM0vrxV1mgBHQ4nTC83t4KaaqP6sRWzBAVLYgCVBaovzAAW/YghTCuQ7YtOqgK+mRiQtJEgU9Gci1udCoapMLEXYN04JbIWpq1Zs+zHgjYLQO9wvkmu21xMIPTp3wZbMzOiE4lSBWnAGJaQILSUVJePdtdDqvuIW2NfeOQcEJI8A1LqrWqkTIV7q3U5VRyNEXWrMjASsgUCQcJEqIWoxiGu6lgWiqBhtv/uivQpvMqj+4yehmgd9zH4HMr3K4vxPPnGMH+eFj++DUb2b7SMjjEPO0SibooOl8/AFnmq3jmRihhDPt2yrDbsDTCa5xKrGy2kmBFNVjTNRDkKoWCB1tZZLQSg0VdTPe7bHSCydrtJbQfOJE3cJ8L8o9nHHnU7kTOk7hczIcY4iZwSF4nAP2kCY3IrkRmXmVux7kne0MV6ykfRZojZeoO1RJbKeToyfTUKwTnBmmlBdqlmB2kqfadVEB84NPqZngTmD6NtQGhpU/sM/q5pM7KBeslvtTThLo5btwa0o83GP2q+CZnogqErxTFwAdw7rCssQYwCBOxVsD4VkCCVe6v+0y4G7O79Ca7EE7JIXOone/gO7HGhuJ+xmIT66VdxD4ud3/69rT8wz98F53j+JDp7RF7g7I5y5ym7/dhFrSYCa1ltrB7YZU9LdJ5nVjJWziprH8VOEETdluwiED8qoMwQ6yvg4uu3L9De0dsHumG6u4BV5jRhQuRRf1hmix9dMGXhDQPvfGdFnAfMy2/0A7GteWmiwN/lBzJVT37mR9Jg2GzGgxcT5/tZgP/EWNRJ+Ccx3FXpCk7Tft1rmzED9P77T+ZX3O8hzYRfUlGzOV4uF++Oo3d6Dy7DjjnpIINW1BlUMxgQBahISccRgWnYY7QTryIJ2gexoD+EDaklQ+4l91y4zUnL8IkXg3LcEjxCXAOb/UTqNzEvcSQA8mGU2TIRG3faqtS0XKIKAL9GM6A7awGeE+5l4bWPTe3ffHiEqmxX/70zfssxcy3Zwq7DMWzDPjYVcjPj+NmRJvC4iiTApeKJ9nyzKNIAZ4qRcLhDWNION4Dc6QO8GUyD8XS0YCSR9yY2vU6KqXu5TEDw8LLuIf5RxFpxIoP9zHXqOdmuop4h/BaSBUJUWIpMNA0eYsviaB5f5vdmLS93Lm7nmWkH/nOy3x+grTETsPcTay9MJ06TvYKAzi3wyIDOEQGQRJx6yirr34UqWAdKR+9Ll/UoK9NepjLeaowCAyhFOn4wQUlE/WRscIc1JqMm/pxK+159lTWcFNP7z3aZ9GRhGGMJpMwjPfEE2hjy37chw4+K/KBwY37VbZqy6oMwivA65ZDpsW//Qam+HafTfs/sjf7GfMK9rOrMBF2kA5fsEIyyRaCm5VIMAljEd7JqAmtsMLI8ErOCgTxgSnw2AAYfcRSSarKqHWIKvi2gTpENkcoCuD6pThN7i6HtlBbbS3P8pEaWILtZjKXonRV1Asi0aSTirBKog2qS3erVLFLcT+37JfylC88cJr3q5cYAg9mmeQb8yULh8ya/m29E7bSdugsF2dtDvWPq4LKFgTXq9961pERfizMcWV2HNtSdCWjWX9BkRky4LBB8wKAQz6ebNQyA7HqCTNX2xZwE5JDRHl6eL1ObHgIAjDJpBKn3htWC8gIQaJkKGyd1KwRs5wyBeBwpWVi0TpntvHdG74D8937SI0fmPL222vjicYvNuW3o6Y1O2M6BblKj0puK/HpSOWF+foUCcLkwVV4uLN16VGmohq4EDuKbiuZ9xLVGw5Fc3okn0kThoAJVHgnbBCsX+qASUW2Uk03sco20kPG2X5han+fb9cxu0vuIUZlFok6wiDovAl7qbNacO+2viV2QboK2AD41h8OSXqnIRPBEbsi0NW4FEI/0z5mfbtJh8S+Fz/UBjoZBpzU04boaK26Ifpc6ySOKq2ImHufpWGLJxsPMDSNrkpJ4ygldVrmqJkY6FmPGuY9DGBNPUBYzdyryPNofilcTrQLqv4Yiuiqe8jNMr1K2ilONK8wmz//7kP5/vlbZh4PYRi+hQLMKqN9RPUAhGeEcMFm9Vir+vkUKOWE+BKezCR+Tm59JRh59p1wiADjiCifQbQ8AWOECRr8JB1vPWy9itwwBiOUKQyhT6pd2oQFOm6P1R9clW1mefdwMfzlrx6zGT+TiWx+az3++999y3T8CBO8+7ehXCN5otAy+tBB20nAOywAy1es4Eg33nN3x/2D79LdfPbk50jPFfZq26fLOQNkiKSuEDIplSQsDBK/A6Sreh751KG9klViN3UgpjTMEDr11x9XXUaSg6P2CGMgDaWdDcL6S1PXDMEkKg0/OszU0+6j3vu6SdRkcs2RZkbhWY7IvT24TsGKXCeadEpWOW3zim7SWCJd6pB9UtFm3bJBYrvRXBdlVKchxX76eqSHd6EncYD8xsnt9XEz/Oa9EepzaiHSAjOwcp+3vFZietoAshwy3mgyO4yFBBkMWSjO8gt2u8YItcx80Xb52c9wRXi8mwlF90ff2nyLUxT1n7g0CgKSfd2OHInDOpmHfKn8If4lG9xPYfwP7w+QOn4pdMzS0i6fJmFXg9VN5orG6GJzhvlsX8nQvxrTPvm0DvB2U6JkJwWYxvpkdMYITWbhJ/X69CMO66lEtIsJRqGZXbZOXrlKX+6qFFHP+2vrYppcK/JqQWGUJKwZINjIxHsAMz73+QNQRzvu2ONux36RSocc5xWyJogkzpg+eXIbEPu45U1iUj/hYzlWwD09NDrZUmdsJDdgDsRPgZp3pFhT79S/qYc86tkAIjA3Tp+Agb6+IhTmQIrpWVY3xbEh0J5opI6IhMFRmn27X5ay2xkiBZeYbV5nMmyZD/j4Lbtf/OpRefZsj+5iI8zhyHnO8HJ1eYcZXkzy8JIG28oc4IK1xNs4/Tx7tlye4h2ns/MBfi0/fMduBm8+4vOxC3Mx1fB0F4PhVvnlLzb4JMkRo7rX5fn3OhOxWJUhLL0OXaWz4czuArTMm4k8FH67sUW+wuFoq6kX0tI41cuvZZJKQyrL4TtpqATxffNOVDT0Rd74xC+XT4yXGDU8732uET5pvTXDdCyIfPv4qq1XJTJT1uog9i1pmU3/zyyon/W4c3tB62ONLfMgtrR9P7mFX+VorMMyoMJsfT4l1sOO4OgAFAQeM4ueQZowRxPqpWUc49R7GQ4kOQKzxRFoa3T7yyquDSa/NiNan9Kj2hFQIkm2zCfStvFH8WM99/msyJMnfFvviwcQks1z6bMu+JLC/js+H/YdPqMsF52PGUkAKpoE+fh1KLft7GDvcTdqPdjrZjuXLLl8xweDPry9wMjHx4dYKajx8B7OSpoBtnCQ0klZE8KLVzgS6citmV9rLV2WOLOOwb+/MT/4zpZfcRXmD/p5bvUMJYwEST9rPE8yysm9mYZeNUyr/o0INTDITaEWXMMSzYQQTgzY31WuE0SRodhquJB39uciWCVVROrWlxlRolgHPyP2+bO7XP3C5S2+TfehvOA7KVcjFyfRAsjebkYjVXY6praQPbB7lzr4ugUvFTGUE5ijn+SJuGhsShLzywjD9+YFY4hET5m7zuXQRWARVfqpK+zssEzybgdYN/mS1X3cEHby5QjRcMrHhl69GGH5ZST2Jz5E9PYyZvs+62yG2Fnm8zNa+wTGwGOdfU7cGnTMXJOmmJP9Tjl8zxqf11AQgg8Kw92f8dUHcMYgBm/5lfLzX9xn7Q9zQp13wOamOU47uOyBr0jBEHFITndh5Rl2p/uAqVK3Sud0JqGVyPQMopp7Lv+TIzqIPNCeN+Nfh4l3C03R3pJAJkjBFihIFi44XNVDfE/d1aY9Dde3w+/aTtnX3H23dnErdBmAHx52u+8rpuVHjlzQviImKdE8HO5KYMEIk0gdYfjzo4LCqxqTQknQMlMqQb41kaEybGUOGQfCKVnIV9uNn9hwlvku23g+e8bHib7YQuLdomWvlauLOROIfBrspUN1rL+/PWG4ipNytt6EsXB6zqa7NJg1vMMe4Ff7gC9CrfJtuRn1P/g4o2vB8/0D3un7VbLtr45Q3g+J30UBdq82paxDfXZYUpIgk9SDDtgo+AxFeEoXqHOUXbV1sBuJ95mNNxVvkVMbQ2UOu5OwDziqiJCqYrUiAmTTaOorcVNZsM2Ja4O9JiR4TgY14JM0kRk8m8IV0c29XYN6iNJFwB1Nek6ZdnW3Qr+IsGCeYxnGUHS7VWavj+ZHxdwvZMIE3MXVGxjlEkRrTkY60eVcm4+bvAOrNalFp7u5fqD0eoh8IDUOh/ca0j7NqoIE31OVbBEezRilFL0pHz3k8yCPHm2UX/2S1W9s1aly6P4lR1h+X35/Vn73m3foEWflwzvW+LCpb/ErXGR2xoinPxiVZXSXHZygPv/8EedevrSlU/F7voP38ns21/+Aj+4ZHmMMgY+xhfw//9cLPNaPy89/eb88+ozREXNWt1la8dOf3mb6HgV244KR32F5MX7LqEqLMI2GYrUryRRVl6qEtb6pF/WTbv61uPJdZQhveOOoEBq5vugT4ziMZsRklJtHMiPDagSreVJkoojghHj1IcF5qO8pTINLhl1eU3iNav/pFxhtAccH54hgdjNk5fsWPpVD5Oodvmd3ebWXYZZj8vd86VGT9yRugs6BIHdzqFAhoWTAlNeAkXcVlgptjU2USIfrmoBR5100wVeZxJtGILXIiasfdmq/GeOamDsojn5XV7+RK75lq3n8A3ut//D9ByQHjsFXbBDDxnwOv2vrrYq6zsubrJ67e4everKexpWBR3jHvcEo+Pb1ORIH2JjvcZWhVuUr1s+M/fYtXv1uSzFcvoennQu1+F5ebCHLkcIf3r9jYtPlHW5dJSGpKxJbSR2VT2Jbb37qMJf3tPZI1rR6IqoS0IJD7zRw6GVLatJWXROzQ4NGc/h06xOZp+CEtig3QwKajMy3pmp+vQCo/XmYBBauopu8MA2789DZ2Un5zb/+AKLd7+MhQ7u98pjFUOuY3x067kCIvbu7fB3pffnNb/9EfF0T/foD0gSS6hmVGUzH7wIgaJzRJ27UwWDBCbxKBuJWRndEw5m8mkhczCQGLn5FpHC7Gb7zN+JCA5sjGuddtNGMcPg8Pz9lycIIJLIcFL3JOjvKWCLS0qofJnLRlUzGSn5GY2786xcs377hC+F8Q8+Wq7eaI5B8KBIdw9HNb397wCjoOJv6PeHL4n4YQePaBAl1dMyXNb5GdjhVgAbpGM9JQ4gCfmu3Tg14ljkq/nkV/Memol2FLjsNTgbhLjQDbm0gtdcwUJRpB2kyE0F/9SBFlgrwsu3bvcYVQOzbjyRtigoy1Tcqg4k0wvNK0c7sLH3wOz4n+gFP69NTvpHCTst9vLQfocVv8L3Zh3z/ZRlbgJ8NPzk7jrbugiE/8KNUq/MwShDPWnILeYuY1OO6XGEwhLSBVSaTCZr65F3eQuTKPNpotGT6/Vp3k371Ck9yzOAbLDfId2owmbtA+87dTZaPsnAJz3G3AM1uRw4re3zDDoFymxHJ3XvsRMA388SBoxIlqF/0PDll71fmUiS0yz8z+QeDZAFYFkChE2U0h5oOTfVk3+KL35t4suuE3SrY5ltHZJWRU/fmJ9XNPY3TboTTCUe7jh8bzKBXiERm/Ac/YfgfSZDk9KMfGCpHWhsPXqsuYCHqGhzK5wbhQNEgnmDLCmVsfYCD7PODgrRBWgv7fqBozWb7wIPy5fJFro+ZnNtAJ7l1q1O+KJsg62cMEd+XP/zhB7zaWbpIaqWHq87DIALYckdqVltSwOK5MiqFy1iJWCPb4Dyd56jKsKIZhYxhF2MtxLyKMkNJlOUen0Mf9I+QZDs44jzEe3wji6mGgzt0GXSRW3ii4fl2ANHX+ES7NoWLyw9li3mRp58/KF/+5C5LKFj0hGFkn5V075mc80NCoxEfNGDtTDVSuVsjLugs/VjDH/fzLz7D/fIRDOEwnw4VRnE2OF2IU/7+KcUbHKs/Kb2UKLUxWGWoRQJN71VaNoxxzRxKEnEjtsAOCckuj5G1DoeRNH9l+4dK2FpQTeKvUqM909eSecsAce8P0JTWFGixzUOA1lgWgCK0+IAOnk/uf9rtnmRxdYxhHZYRMFm3hSRxvccXX7iMQccgvhHDyOAMM/3oko8E4/ugPUA9RAXYQ3jTtWHHcKrevUaERSSl6oG/YQoZIwi2Zi2UspB1onvxvV0LbHvIB5yfd1UW6Eoo7OlTDGT4fPq17g6f8dCJ6IIlBcOXh9TJ79iyMpDZ2dXNbrn/GLsGa4qHLMxy5PGOT62+wQB2cnpcrqan+Is6esPeA3Ms041sswjsMR8+/PInTzDh83lTVviJ45NjRk10Tfvobm9eHzJUVv9Sd5Gwwm2X4TBdRpJZUq1aM96Ldxt2GrdMYT2j03nPaxHFr2fu88g70vZrP2WmhtbDORPRljDzB2Emj6yAM02YwtL32V/XsLjfUXidMJNANZ4twM9p6ZupT4gr6/rste637FX4vn/+hpEL/fnoLus5dstnn29ieUQXYbX70vIGffnnUWJ//9vvyhu+ZX/h3A3mysz5WEeAa+ckNHTVDxbRdaEUVh8VxTjsBPKmSAdbo6BbFf6pi3Ap0gmnrroOOFno35z4x6yi07P++PgICXAHn8+fMmzl27f3QOAQB+G1Z+hMKywv+IalkB/5ZPyo7N1n0TmfWl/HhK6gOz1jWPz6Y3n5+l05PjtgC8wLFkYxR8ManCHrkO/zqdb/+Dc/L8+e4mHH8H8T5lhhHbBfs3jzely+wQXzD3/8HkeqQxqWQ/G67CMb0bAeyA0DJxO+tes++tbBf+p0PQKUMVomgUbWnCj1kJ4iwiMISfLA/W9KkPTZKavNykypsGOr6wJFdoRSEC0/11K8+/QnNBHtad2KN+cTdPljRvOIkQCKn7PXE5hzjqL7aE4rxXrpRrru3uPE35ThY2EDvNeTAwivHQBE2Z1yVGlGt6c2L0UoUGapfW19b/lV0nyCsaYlvHlX44BYstClccS3e52BvoIp3dxFXchPmGi32eILFWtYPO8xYXd8gT3kO6THEivxWfx1h73UNrcR0ThuSeRDviz15i1LNffPsg2muz0yJkL/Gpa7bD/+xU8e4Lz9KLs4ali0nA90R2/f8qn2P12VP37zsfzx9x/I54I9YzcgHt1yJIjrlVXgmbmi8VVp3lKA2oXg/IQDar2DAyvu4/VRcUbEJkS9pPEHaeNU5BnhRymv0xiajWXzXiaR0AbWHFoiKcICEEDJZM7e61Tje6WJuwkpTdxIxX3ZpcYVyw1evfqIFMEaicHsnA3sOh3nO/waZQfRy04Anc/ZrgkmungP0zhTTL7XDEKpZKVPjYuj9L9Q0ZR1/XK4CJSxM7yl2wmTCzqwV7itXT3VS9zvVGZxE5iseGPUpDPPi/5J+cd//D6TaF/85DHSjZX3DH/ddXHM7G+PJaV3UEzvYhhbwjCm1/3h0YLZXr4ZxxYOGtOW+cC0uw9djY6QkEvlq5/+lJnhz6gry0jpanBYY5RzVX796/esIjyGqdx16DxD2zkKLJoRuglIjZ8Ktk6GyjwQ5hxNHe0pHfVoV/eryrl1u3k0RDPIEWH6h4aYQQNhhJvz/+RoEgV5pAlC6a2FoGEQ80t3FIUVrBr3mmNr9hHnRuQA9+kv615ajhzQSZAcFyeISBCtDwTkAXn2mwumyV3HsgSTUHk0/cuTz7guGFUohRz/S3hKJX+vDklllpjPKcxRmOH18P4vkSZoKqpaUT0V2dZJjb+Dp5ZDQJcxnPOFrecYxyaTD5zoSzuugeV7eWzFcM4WQEOMXvdZevDg4Z0Q/4IPNb55fVVev9IC6ocL7V7Vb0Akw/eFLo1s+znCQRohRcOZIlFHOG2flN8x3P3+Bz58eOFiM9IQz0k63SD18Ldr15JaPwRJnTJ8dd0tcEOGmzhP3SVlGEHiW761NhAcwQx1d+yqTjgQoHn8dQapLUoEm7g9va33GeKmnzYIsaaog1CBSgDsgmyzRDcPVRq7IX0kFbkSzMppdndNbhdbgED6FSaR8fbdAWIYszdhl+whOpvdYSNdlkjiTvmMGc9bG/+FVubHCLHA2p4QsS4FaBcUKRopmWeVMZGlDqJiJ/x/ecjs7SjGnRNZaQKMiHAbAKlkkH5/g/KAFXcEP2UyYkeCk5OXma9x34+z8wN0lBFMvIlT9gOm9u+iWC8z+hqznvgjetYp0ogtIKDJ2dkR+bqx3R5Kd6/88z+9yFKPX/zyC6TfcnmBv0w9z6Ikj5wahlTWl1XBkb5TNpexEaqMOyqMlNDlE6li16ge8mm70kqHMEcasTioONIGEgmiFMl9xZG+I11OekJR2R437rh1rF3fkokSIZmD8kQT+dwQJh+HIQ2HOSJNkqV9ubpAzV8G0Y6g5LAbcjmEuwi66xBcQstG8SKPi4sRSyxZfwvh7P/97spktFMeMtW+g/K2gyK3YJRxmRXroI58JX5mamUsweUv3mOUIwyBlV/f3DzCxCpzxrF+anVpN0o2BSx9fIx0EgM/DiTcFa35gt2E1Et6SIMpCmd2VWYPkM1NTOo723HIdnr+/Oyc7oWTLmOMl74W1+xeCJ7mzF5fsshapXvEctTCKM4N9V4xIvrw/gSGU3LUBqYbYo9NYbQlTemio4DCCNmDTPw33ae0EBufDuprJcMQEkJma3EgVnxWejQM4juSX+9yyNvEF0G5zdUCRJghjb3D22Rcw6N+hmlEXOWA6K38+M60Fl8ZpKZp/UFd/ui62VRU4BTrTI4tLaNnMHs7QhEdM9fwDi+tK77ecHrCCOLwDrT7SRkw3T5kCOk38Zz1rOCKbC2fetQrcYTfrgdI7C7CACLOiosAldlAF/icBhgj2p3/ucI+MYL5InFg0JiyqY/D8gsY0v3YMVvBGHOIW3UrmWhlbZ3Rxx4Wz9tIDj91gq6FguueKNjSYCj3RnEIjtFtuAV0TExeURab0ilpzk465Q+/ews8dGN82/aSCcEJUkL9ov0qafBM+dkt0XW4DuWlEXVMtyoekZrtnvXpQaz0j5jjE4NUSVsZpMZp35mp+tufdTGVIZJj8yPhK7IN8C4A5eKTjMDV/DzCFYYTYJjPPNrjWAEDFflQh7B6FZFKkoUKlc7CXN37PHM3KK4OZ0eXTHWzGcq62yDo3MLs6C47AK3AVOoTitMQnPI0Gumh5rJMv9YdoC06MFmf5gyTBLeCw1u7OEzenMJk91I/Lw8agc/v/Mok6ksyOKXSZaAvUV6fftOR1p3bbG7HuUw3MUZx/fB+xDZRWIxx+HGSbsT39xwF9tBTkI0wgPnpdcdn2bGTnbEjokq8s90aqbJkAtjcKkMYXW6hE1IkHekME486O2nqrzPoNgzu5R2qr8Jt3TL1gXTUkCcMvvON72Ks0zAGbtp9Uw03v0z3i76bRxW3hkhOsCUg3PucB0WFhfiCoGr34F69xMPXTXwr0Y42HNI6gsncAS1YxKq/uI/YFI+pPrYHehoaJJ5kSHdlkTU5p39/g5L3G3wsxtxPLj8rCwxJTvD5aXYlU7XUJkVGL645GbDMU9uMCI05GgSpfLYSJIwbxiS95TFz7Oo7pZsOP66B1QZ0RV/h6KGLiNe45R5lOvReXOn5BoFJvMaeI9pG7jOP5Ez1Kd3DN384Ll//nrXFfKTRbzhrC8on39WHGKbDHhAXRlDXAc2a1l0CI4O42s4RjtZRV9LlS+D4gWhecE7L/dwjDMkjcEt4dAa/xRPcQxcEZ+pemcJ3tbuWQeQuoCEuBdu1yhwyks85Kt5EQf7awOYtFxPXDD4xRxMkHyA5JL5XuZESc1+vhtf0GWWkJSOwaB4OPbOhLYB0GZO6CX++amltQFDW0Tg0k8kkKP2+5gy/t/vu7Xs2wB+UL1iuGclDHy/SZRAlVB+uchgrM2QVW0CoFb2ePIQ4IRLlK3UQQJEUdhl+fVsltGu5iNdKRPwyYQDRVpsEkgZKZr956pgGRJ56vY/5RMXp8QVwutsha33/dIhDEQZA5mAkgnUT24pvT205sdkQFHRRKRubwlWlWSerHjsYaReaOkFIFyiDqKc4u1tQ6pVENDHyc0dH1g8heWKVJqQelqd0UHJ4ygQc+fHizU0eqK9CWmBRC0vITR1EYOszCJBNReZ1JvK9yUNBQr2/cRg9QZUroxkT5Op3dxP0c+jjmMppoWEE5mbI33WsistW/PmdOC2b1Y7Ceg/tKGQpknd32ft8h4VV9OeKZvfAAK1IKsQ/rVfEm649rY9MU8WsDF0RlYpTP2dBQyyYxG6lAzGcyRThmvo32HBmwUjhCjP/BB3FjVlMo/f9YGhffY5CecacEZvYHbrr8h76B7v78HWso0M3lEMvoBtJq0/XhmsgM7julWKLzbSANQBmlXgZI1tRsfNRB7vKDMkww0g4xYQvDvr9LXAMU4poJFg+d4bRjckI8nT0JUaptHRo6CdzfFJQK5H8zQEjVPYXIyEeVxjvmkHaeNcpmgALaVsJRXqfjCSmBfNvdnXUIuKbzBPPuLW/lD/jmyDguMpZgfSjhKtE2tXIGhkDynfGt+IR3wNEujoHm8vtDdjQ7Q5ORg452fqBYbLavLqB4tnWpQRx9V7yvBajlCNoMgNnWpFShrQqsIa718fyinuY4sDEemC3jZR4fZhtqU/fT/whX71yBdwVQ28lnFtiDpkjWtD1uV7mlEk49gogTzoo1tpe6PBBy9Zg5tZWbmIjkWbYctzLtEoySSI+GTWlvdoQhJMylGaMksqApaJ4yyvVNA+sLiPVgMv1vLVbNz4Ngu7KzX6z0h+GUL+pi8xETtNgvYInXohm/kWMkq25h3bVGCrtMDgSfuPgpRES20JNbsZVgakzfiKUDNNvNXGTwyfmaKWO7C6SJYRZupRQW0VLJP0qVDr0gI/xCokScRoGovKA59e0t7bWyzO2i/pP/+Ee+6XuMTu6GRjdS0wwtFZeMRz0g8o+LzMqGI1dZwtaENt1NCMBVDyVfzIGhGJuJtNOwKhHve6Eu7sYvljO6Kp+W75Sp8v3b/1Q0Q5fbNA4eIWyCRKQXDAkBLSWDhM77Fy4hB9rv++HhNxR2bJp5xA7EoqyZYoJ+8FKsHwXBoa2m3bl3JDN520YMuEI31wlbgeptsIUvzhfwTDoyGWFxuFHpufA55SFZekH6ya87reCGyuHHyCwC5J+MkjTKEVQQ2OZykZd18J4TzSrljBvaWiVrAT+xWFsz+aoXEOiSuwaynvD+ReQCoxp2tPbikyBsS+3ZUswc4l7IgDbekgMchCn/NHjhpFUBp24evbZSpyJvvrqPt9ewTgGv+q8q/JrOtlYxs4Ihq6pzlzKBIjv5E+0NBqVP24S3zQSpvpauJHtkyd3mG5n0ThMq/Sq21ZQ2P/b27kwaXUjZ/gzzMACiwGHXYPjxC6y9lbuqeT//4ZUpVxJHK+9XrMssJiLBzPmPnme95XOfDMMYBZmzsz5dCS1Wq1Wq3WXEGSv7zgN513Q7CE3hnV+6BjnlTgg7byKme+lz2cYSrd9cP684ya6UQ6Mn9eq9kl2EHoMJ9WhrXG0ggLi1INzKTawPTbrIW0Oq91TLBeQRQ+ptxSQE0x0HmNYfUcNQtwOr8NatOA5BMRbJ9ygTW6YNWbF8oTr2Jo/0fhqkvBDo+lSo5iX8pHJuiV0PgSfCMRu/hakPiLb+yihQqhlKEUOuAQ5rgQm6ak5XGvhfo5NSkkGnqJiATUsxfgZXbhHLC+kvY9SeZZ6/xJzE1c+Pbf6p394H/MMs7unogEe0AZwW6aLdD2/9AxbCbz5QdLcz+IFiQ95be3LWY/ZtrHcg+pcvONWRntKjKewj8W2y+aJD5hyR/MQfhPNAHKERPJoBBsWRrq/xgzyaCqrgWOOAttmYY5GDaKQqgGOOTRPRqul1JYKiLSJzvTasMSDcMTjk0LteI0ZYzxCMt6BMBlOBOZDjpuAXWoG6TAO2wk29DtswH01pMftEwRCCzLKSjvN+4rTc8HV+Ksx8qUNN2PVS3osvH3NO5t+eCg5Nf1OVdJwYkkAgYtFJKpeMapccY5QmBgThjojQ+oPZ1DJmWEkMU4wHfeQlcxEFo+/Vju2C1aMdWxQ358+442XTGJxcP/nn33AinLbIKh9Gq0/cPT0n1lX8YxpeA+adVnAL1DBljBpsdTYwPWFSl0kB9oAcM6Hm79/2nbBElsPmDb3YkTHITYZeDvPzLHVEnKczDe9Mk4aw0BMu73Z8gicGsE8tuoUwDkkZCLbOkz/1ByapQQEPKnyMCUrjMLTXpljIBZohncCo1DAttA0w4evVtnAT/mJdhIfQIZH+TDgR2EB3xYDcI89f8SuNH5ZVph8szdjysSMx3grKtorJmO6H2ApMVYpNUwoQXziDCLMTNBFOLDrEUBLqiWls57pwoV6YTyrgqEtjoLOWaJpFFCyUI3P2Z4oMWLZZHGvy+rEceL0k9WvL29y/PbJ1X/8+/urTz99f3WOhqP7Sf50jZsPvrvF2owvEaQdpsevrE6e/TDXlz2CfkcWyC1ULTjpQqvBUippNGbYnNLkYNXtW89W184+YgzFbjfa6qwjkIOpZHBYxmCTM8My3IyII4am9sDgp3/aXMLpPfwFrV9N7XAWCyQOZMLnScBmsHaUV3CG93wna4AxaxQCtZcPXskTmm6xyHZZbJtPYbMRf+M6o7g/kQ/uLzLmWYhDgwVdLPMVkY922yzZemmMiTVmNUmg8hOvIDGcKlCkZr7eJln1PQXELFJ74IZ/tA6qLrIGaBgLc13kYlsg4gGst1i60egDRkcvcsDtp79h7yv7Xv/uCueVozl+YhzhJmtYv+FAu2++8XqNq8x5sNf1k8vqqzJllxroIWbwN/GYUclQCrB7Wr7n6GxLnVssv+ciZ9q8EThv4XQZQkuybSYotL1kuwb6o22Jp4VDFlDK5CU+eUy0z+RXmYTDS/xfAy+2slquQj8/Kb/hbQUpE41qMKnD3Ua3msNlk7ahbnGKgtrS9a/qhGTMyBDpTwJC77pwCEmeEuveRmoCStZI0DCDCOdEgICUGOGKn+j5Qig0U93oV39LQ27GpjTKeOdJ7Em4BUABcbPSj/fvrd6nCH906cPVb/+RtZ//8kv2hbD9kKvat7m6/ZuvPdSO4yK+/fPq2vUbZCp3vLGX5in1MB/UHuCC2VHxcDBrNDHFb/2cQ+gsVWS+K9geM/u6xYzqTe5y8STnE5wesKLbmDkOPp1EwwEhslFrUsRlelp1RrCTwsEDfPNAgyx8lX/gpgDtE5DwGQDDBzNoc6sG0hzukoYISDQIUBBnQZBOC4WCqb9VcV+G91lhts1WDU9OaP4NWkvxvt+96bGp0aF2E8UrgWqQyMmSaN33Pi2ZdStD+G6gYVZgEAc8SBrq2nGQx7TubIjyhZCwCpzMtat6hvtvL7Hr/befX2Rh8F+xzfE0Nzkcy20I165ur373fw8Qkrus57zLHt4tliU+ocspXR05TXdtkNCJORuMCA7qVHZY55vhGWWkR5J5EXoIP3JDgjdLZKwhjUwHrcgcqsVuDVCIUcxRy6ZJTvhOJk/OHIYdnAocGW9j1pgyXAAfk0fQkD/aVvaAqq2hViGhnpEPWXqIBu9VcAo9OCOck16T4/eaHZtPZBdnONGHaOfnHpe6I3vBoU1GTS1iyfW7r3VW6uPAqPwdZaTrCrHen7b9iM1QrKJ6+vwepZo74GicXmCh7pUrV1ioe271+d//cvXRx5yBzu73+1y18dVXt1ZffXmP90faH6wGZ9Fypr8Zp2A0AO3g6ilb9KRzvgsDGUiiTvHob8cMcrAKczx2ex1wSnea4raDKn4PhqqF7KWkEQ1811Ug3iJW0NSMERRgw1R5W54dqp045DixjURqNt5oBOog55cyKDbyIVUsWTK1CnqUICOfYk6hwNxjN55dP5sCu3Mxu/GGGCXREli5KYkJHNqUYiM0AhHyrbm4wfhoD0YDGSSSsZbiTUYiN1mgu8Ee01NnnrBm4gRjDxx38M+u5OZohb+my8mI4R3aBd9dvbP6ny/+tPpdzkrloBW2Jmaij3iOebick1LOO9CVc6bV1/hVuc5jqDTsZjruoKAqxwp5GYlKRkvYsnfU0wxWVzi2wPAXeDogZU8oDUK6stEiqT7DHn4AA1+e5tc7tsNj8cM7RUR+2rbLt/ElTvVbdNySLhOqYOQ1X/iOxg8y84mXMC+8S2Lw8jEcxqJB4thYQaiNn5iqaZlcJ9XabkPWiIzQiGW0WsPHsJa4CsgGmuIUw9gXuKbCy3DOcmGf55Ne+eRDeisfrT77nO2Fl9EJbA/4/s726j//6+rqf7+8ziosD7VjCPseS/Ie0jVRnWZCzqWGjJQiFPaOHnO1me0b6dB/k8uNXZP6hIQ49f+YoXiFxLUS9rjKdEh0LAEWWNdKfwQjS/no7jJK+SSnMjvlTRCqyVaZmuIDvAw6FLuxZBo+VZ9dUuOb/DYPBMBtZHxEPCWAYAoIvMgApAIBbOEIf6CAiKhpatoajwVnaYMESyI0WhHmF3i1xxAQCcRjV0CEEZnu1vGWQx5gbLCSfXjRQFJQ0FUn2Z12juMU/uYT73tjVpblg5/8LRf8XbS98JSVV/RUvr3NwpmbaI6bOdbJFvgz7rfz8NesGaUx66xt1maGEUZINNDbBpuNNgVBV2ml1EWLqFGkFNrkmT8IXOgNqANVdr3VStUsCpA4yuCW1eBcQoVJYhQDz7u0K34Kht1Nq2qeUaWZihlj6CEjQ4P8j5A0bQ6WJeMNHAEg1DQXDGKaL96NKG4K1aJBgiO+MnVGH9cRiu8w2sbOcLeDLnKJGuaCR1jeHfedevMRvZcnz7bYob5a/eu/XSG3TrNL7Twn97TxdOM66z3++wbrN6+zup31nWyFcA2F53s6R+FhtOZpD6ZhYItZT/e7OofiofV2STsAVQ1nI80qRlo3XcHmAF1s/ECvYwJdUij9wCrg0CgDFXTX2rbxZ8pMO28KSz/FlWSL00TzvEu7bbleokD7IbijuyWG/8HvUkb8CpNuPNAeIRgFIAFEEBqbvsCt4QjMCF8Z3MWPgIzQQYBtmtMd03ovTEpVIuEK0YzU6Iy4hIX4gQMpICxCwiot1f8Gs5OenHPuDPtKOM3wJEOWjxgSv8lZqb//+jaruK/R9rhN74JjIlye52RUMlKEtCfo5OdmJk5gsUHsRFjmIEiFXWcf519cC2JLPr0R3NKJwTs9HGmSfuwZ6m4w8OKfNPGTxCFwaKqBFV/TPICHazQpPmWwwUTgU7i3sTdsBdwjvuVr80Ds4FcaJz3m6iQ7UBXyaBNhfSdp0z7N4BBm/Zn2NQ2y7l3iwCiciY5YKaPGwqtbXgEgF2Lzl8iaqQ0sVsOwTpz6/wRHKXiE9A43NjznQNfnrLn8YWtr9cUX37Ip6AZXftzl1L9tBngQDocEUZHG4PGTz1h6mCV3zJhucBbX40eeq85+VKJTe7jsTuFwLMN1qb1sqFQoMKaps8rUM64XQbgMq5CE10RnnBYGBTsH6lmK+bMjYzd9sg2AI3yMtVpEXoaGRTgmRfJq91kEeU/mC7v+Co99b9CBhHj0Is1LFTN8FiPh+BEwSKapYMRhmiIaTgsLK8FR42gAB3LabkB102twWn57m4NzOVfUs1K/+vq71e85a+Me55R5BoebvFN/8mtmefRS62M0B+srGArCtF7Wr/GbmJ76VzdDRkNkXMPSD7TAZDoiAU0dsOu6VYULpgiThSW0oARNDwKa+TPN4pAN+OS3fDhEu1UacRq7mjTfRL1HM+AjXfoJGNhYW5x1SQFORgbRAJpp0C2hhmeNpnWfgDQegWfgMqUIcI8mmXiGfeDWMHxKXBIDDqod++CbrOX0kh67vC459OK9a3/cYgDsOsvybq3+yH7bH7goeJuFOK7izo476lC3GCgEViPHmeF1T1mqFbvLLMWTHnqiaAzEhfZwtY6Z77oP2za8NETtzpq1WYuCxsCbATK0BA1nNUmFTzWBSg9OkNF2ShdYHLxgnQnHb/Bn8uMw7EYhQ0O5vLSo9JlZ3/zQTziNaSZw82NdMBq8vwN23Wn92zaQ+GBR4ib++TXAGpc5nicGbiVO6HV4kQlWzSFDHbX0bPAdBrXcBZaJO8J4KY4Z+pjl/q7psHdy9ixtEi5ZtsvqWeOnfuFR3GydZF2EWyDN65z55Yosp9YRlMsfcXQkN1Xm6ExiVlAsZR0H6QIklYHVTksYoovWSOMPpkmvGsdegutPshzRLIAx1RxqKSK2sZoGrgIymDHNKSCHZjdNQxwQwpmnYTXU9amG6PeEqYAMgAVusc+gi8MBH4lsahADrAWqJK47rEkJzg0LYVTO9SkC6z4z1sahm4tdd7FDW+OZq7N40wsgc1wZ7lWen/3mAtsEXMLnQJfCQXuCEu70u3F4oJ1awQa5azk20ByOgj58uJ2jqz7+2ENnnX8Ahr85WhrlAeRj98iIlz97LIVSYMh8utVOzmjaDS9tGERG21RsTSh0mM4+gw8H8PPdO5nZxrc3TvkS/idC+e4j3wu7qzBaGOonzIQNuA6vfiL80SCW/mqERi6iSu2IEqulB8bCJ1V+ZmuByXgDPh1rcB6jI6Yb2W3OfSucHsTKufRGsseVCaPjqHyvIL1wnrWVJ8+tHv+KqsSBLJiRqgQpQUbChKzoghwT7ZoLq4ZnjAnkgDsG1bzSnEVZCJjVizhmVaDQWGPYm0E4XIBjYkznkla1B43XCIh0VxCrQQpOCB6FI4GHqdsRPLOwmX4EfC17R+S6+Eobj3B+Dqt2ffO7Bhan4dPvl/2a7qFBIh5hnpkvE0egxJgmXeLJfhb8HFm1pJmRitIcc3Bm1hXZJ9gh5zZBd5P9uOWeEkuxmcefo6qMZp8gwz33zWo/4w9EORMYE3tuNtB9EZiSvMFtEC43PMnt3chAhLCCSHsDQckZIHiERroqTomL02Gb8s8PtQqayro2/iRsJNySGxYMzZGR1oRs6MGdwzWiPRCMDB9QMtSCIcq07KdD3cizZJzfM60JVAdhBgfy+Yofq157ie3FiCOCkY8RbBKBOXKowkNps1TZwh6EqlUy70GmMDpBJtFTQXvcvcv2yev3V1f/4A50FuqaQqOgJ9OEg9tE6cYTQQ1OEjxUXKa00SpqBPfECuN5XT1OwtVTCCGjrTZ673ACz4MHLDpmEVBXhjsvoyCYFnEmGn4UVUtlu9Hay9xZOAQcb2jzx3dBwPdhP9JkHMbJx8j8FykIUGEEn1a/l8fwWg70XKD2fsBwCkhWlO312LW1TQFcpFnS1CaQbOZFQEbRzogpTT1airYZHrDe1IkuV4W7DeDR03u0GQyoVOLmpTY2YFPPC+NjSR6Ch4YqftU+bRIaFQqnZ4goICe8phR3NZdzMOyARDh+4mKi27l35SH3tmVoPuEaViEGaeIxtn7bzvBLGvT3SQqHGQd+9JO5b8LgGfZtzRFvCtc6/eL9ufQMuBS6n0nPyItlHGRGlQKNZZa2Cq4NJkvcbJQaidURGSmRRCy8JVWt3C2GTKjTY3Fb5fbDJ+wNsSFo95FSy51w9m6cK7TyKQ7wMTHlnEzGOTK9Ll5GYOkii9frunxsxBqhA19qFgXYjdF3Wa/qWg+v3TJc9poMuCBI5oMgiZXZpon4R+kUN4ixS5P+GqQ5NB21kBi/tLS6G5VeSBoJGN8aM/fWnF74nDDTfAFgn4Pp7UQl/CGQhKyF9TsZrpcaRHNMXlmKbZBKtD0PmejAk4NhcaWLa8neYRjdUUwXCXnycDSIap2MzfUVfCdKZyzJhK4OJyA7yWh2YkojME7NO4GmkwKTxaJApAFjA1Z/qxsyHHgPmLXXYkWSwTHQJAFBKFKtpkmNOIVBu37ywTrfbwVUehRIzSkkeB3JI02NSJ6/2TPhp0notc+X4yoQnItcLBqkofWcWGSQjwzje85s4hKBAkFKL17RHvY+UOmW2ud0aS3x9ix2OH3HUfMccBc1aQnHIdrH2PSU+WgHxjgiHApIMkMwMh9vV3q5/sPjGJzKt3HZYx7oAtPgVZidjXUMJi80u93BuNarSDyx+6tggCfaot/VHIRfExAvErAJlkea30RNj2BvZ4TYgWJ+T/N1mCfcNF8HP/3NFQoH75qATM9ds4JgxghqebTEwyR+Z9dW4bA3Yy/lOCV5h9LrCi61Ta6mwD9VhjRGKMwUF+WYmXyLOdVXea+9jVnjMWcc9HLgzMU8Xk/a3XFtUwBDbne1vUJCWP8RJqsfe1UKRw6sMZelASyJd36rRSIQtlWMb01AIgxqSwWfAEmLWuSonhA5IpvfmvP7dXRMuGm+Dn76VzjM/0VAJgpLV0sY/AhDJIePFKMREO0hjXNnnJybXcX0GFDvwhu+6xkcVdXNtJkBaJgMpJEhaIqUcsYqojSSKWaCwGaqNzkiUCwxVEBsM3TUVBqqBtVkWPKaKF+rwHaTa3cXfYQvoEkRQUIgAmJcftesoAxyic9qyBCtjkRwFM/MEeMa3+HNjHvdf7q9ynxT+OKKgIRxMGcKRr1krCVKppU9GaqWWNzpryQjokkoyG2LUNoVnrQxrBbKc1lbgIEv1cXIDAUvpRvByYAWJFk/paowc1g9hkby3hhP5wnO+KsxCJMH+pSuMFBG8CKdriDLd2g2JdJuvMNZ+3yTeP1Nq/ELZ4sKIYwNe8KK8yieXdqSttA+4x1pmNYXTMOuP6+DX4ed38m1dCPCo5YuhcJXIJE2otpxwaqmkPn++d36vWHKSoDIxVQxA09L3swsMjUZa3U13RqPGZCVXolb6cKfeZAoOoUSsFYdwtsoVkuVToW5ywLNXDIWYrtGRG2CBBs46cFMgsRvWF+rM7/WYLCHJ1SLFRL8GlUghS8+TT18DO/zruziChWyfN/zgsPwlwb9Ji0z2Mvgp/9+E3j4k0XL02sKQu2NQDfVtY9ly/aGxJoxjkXIYxloO8LHsQkzYApa4ajDM8EhkQhIBsqmgOCU6kvBQXtkzahC0TiFVwjVVKIuegVAgaA9MsZDhBc7EMDQqpXaCKKC0Koo3kmFbrX1w7ilOwmrCTYFpnQMWqK5ZjjNBclwfJd2cEGTf6FjQb18rBNywHe5cYDHz3JKaKJKFbMeYmYs1OFsRvObDJ9QY94ivLQEC8mPJdiMTHKArRTFNJFmXF9h/G7iE0/CIUSGtbcUgak+AhBXR1CxN5rUQAqek3IZMLPxGxzSCnQUggIirXUTT58kiM9Jk4ItPUlInfmcj8kojXgN97ZZtIsD3+Hxbu2DP2mYGU/jSoRH8GM++uxpg+yNd50gsg54BSX7RNAoTm5Vm5it/qFNmBizrRFtkgwjEEz0HBDXpnbXnTmGIIC+4w1mUJ8IUnJE7WJYNUUHz9KLUCAQHquTrD9lXqcawy43NOGn6T0vzth2Fx86iChKo/Dj1SgPdk0EJfEsmaEwSx8R5zXADMTnoT8SWb5zZshNAAAD1klEQVTvRnU08csvC70tQj5n6XbjkxkwGaEQmBm6kRUw39HTrJ/g26dCYiK0WdItvqp4nkj/mFqPm1pBQP2nYGg3I5rw4tFPN/14GSNRUFql4ZfqTH+7sRVAmxlepa586dMHc6BQUKsphkPs07N+4cMed7Sigp8uuQNvpYuPPMMwwkO1S92hPkMDrsch7+Ujqyzg7BglfI9rsKzr0/CzyqAOd2W3Jxmbcd6ikENexlUcMj/tAzMFeHfSZxAM2cnYghqAwS/Pu+gC4UbbcAkMTcNtoQ5k4Oosqxkie9QiCohAwDu+gYCm7UmcT11ORua58j17X5AStUwHXIFPFSRRsyCIc77Qtnwbz4QxLn3UHmVWtYkaUj9cp2Actn3E01j3/8ov3V4JtD/QXnuC7guvTFAAGaBwe6J7ZVHJROT2ALVIS7hM50QgMsd2wQ4jnu7ROOaop5nm3yCuPBLetoJM7uBSTgpESDyq0RJcOLUK1jT6zAAtu2+61yDOWo1oCTMRASG0WZVayIhFBqJUQxGQNpynpkgv1zAMxXb1mDSIY+grotzVntWOhrX6MmFRkpSMaNVQCF8kXFJjr3lo9hFPErp8jzinsdDzMoAJ+IZmtDYLxJ9zss9xbjra4Bqtbk9wOHuMclIKHd7eeebEmo1IGi1og51kdpmsW0sgv+aIPQb8FZ48ow1hm6CPwmNYqyNhFMYBO8yq8glTDRd4VQYwnvajOjFex2ZOuj4Vm4KiRms7glhUe4BG3sl4u7vVkI3SKkscNoCzXAEapSSLptVCChY4siFLgY3vkjLsfSb179QOUmPs03QMy9EYKI33lAvvcj1/jsEoGOHJv64lPe5kF8olO90REofYFZAyiE9Lr7ZJ/5IQM1shWc90wqa7qdD5yM7hr/QPpuvTRxpwDYOAI6y0VPs0wqUtcGD4iUcTGsHTNpRD7xWQNHD1AHMM4ByW9/SBng1fLXLmjFWWBcb2h+nvY0ifQ7cnImOZMSXaI/lJM4MaY+Pir84l8Re41kJtYZXiqXnOhlZApHIKx37WHEQrMMm4/X4zkRPHNIVb/14PN8PsN18VZj28wuGAmkKKDmr/l0xX4KkktYNamCxL4FD9+1v3WXV/J2EuXf41V454eY/0vYzGoDrEn5n2Q4ziINS2QY5trzYuXfqA7Y+nu6IcwbC02ChVKEZHBcCBYWiOg/Atbq9l5tswW2a9GcM6UEcCCOaSSe0enW3V8ZiVRpqevuhmqy3uc7lx/cFqa/sHFiVtsof4CnfWXkQ03obmhTN/4ccQzAML3V+I8ucEQ0De4+zX/we6oPSuGp4RXAAAAABJRU5ErkJggg==;" vertex="1" parent="1">
          <mxGeometry x="261.46999999999997" y="197.51" width="63.06" height="63.99" as="geometry" />
        </mxCell>
        <mxCell id="-3cmrAWqZunsYnbX4t1o-2" value="&lt;div&gt;Run ecs-composex&amp;nbsp;&lt;/div&gt;&lt;div&gt;to build&amp;nbsp;&lt;/div&gt;&lt;div&gt;CFN templates&lt;/div&gt;" style="text;html=1;align=center;verticalAlign=middle;resizable=0;points=[];autosize=1;fontColor=#A9C4EB;" vertex="1" parent="1">
          <mxGeometry x="315" y="212" width="130" height="60" as="geometry" />
        </mxCell>
      </root>
    </mxGraphModel>
  </diagram>
</mxfile>
